<?xml version="1.0" encoding="UTF-8" standalone="no"?>
<!-- Created with Inkscape (http://www.inkscape.org/) -->

<svg
   xmlns:dc="http://purl.org/dc/elements/1.1/"
   xmlns:cc="http://creativecommons.org/ns#"
   xmlns:rdf="http://www.w3.org/1999/02/22-rdf-syntax-ns#"
   xmlns:svg="http://www.w3.org/2000/svg"
   xmlns="http://www.w3.org/2000/svg"
   xmlns:sodipodi="http://sodipodi.sourceforge.net/DTD/sodipodi-0.dtd"
   xmlns:inkscape="http://www.inkscape.org/namespaces/inkscape"
   id="svg2"
   version="1.1"
   inkscape:version="0.48.3.1 r9886"
   width="632.91625"
   height="485.41625"
   xml:space="preserve"
   sodipodi:docname="logo.svg"><metadata
     id="metadata8"><rdf:RDF><cc:Work
         rdf:about=""><dc:format>image/svg+xml</dc:format><dc:type
           rdf:resource="http://purl.org/dc/dcmitype/StillImage" /><dc:title /></cc:Work></rdf:RDF></metadata><defs
     id="defs6"><clipPath
       clipPathUnits="userSpaceOnUse"
       id="clipPath54"><path
         d="m 132.321,245.89 c 0,-67.89 53.578,-122.91 119.672,-122.91 l 0,0 c 66.07,0 119.65,55.02 119.65,122.91 l 0,0 c 0,32.718 -12.466,62.454 -32.768,84.477 l 0,0 c 0,0 -14.666,14.083 -18.384,16.891 l 0,0 c -3.718,2.832 -23.364,12.49 -23.364,12.49 l 0,0 c -13.93,5.842 -29.179,9.077 -45.134,9.077 l 0,0 c -66.094,0 -119.672,-55.045 -119.672,-122.935"
         id="path56" /></clipPath><radialGradient
       fx="0"
       fy="0"
       cx="0"
       cy="0"
       r="1"
       gradientUnits="userSpaceOnUse"
       gradientTransform="matrix(115.72131,0,0,115.72131,276.5,285.92676)"
       spreadMethod="pad"
       id="radialGradient62"><stop
         style="stop-opacity:1;stop-color:#24221d"
         offset="0"
         id="stop64" /><stop
         style="stop-opacity:1;stop-color:#4f4c4d"
         offset="1"
         id="stop66" /></radialGradient><clipPath
       clipPathUnits="userSpaceOnUse"
       id="clipPath74"><path
         d="m 0,388.333 506.333,0 L 506.333,0 0,0 0,388.333 z"
         id="path76" /></clipPath><clipPath
       clipPathUnits="userSpaceOnUse"
       id="clipPath86"><path
         d="M 271.891,351.013 271.199,350.81 271,350.734 c -0.577,-0.197 -0.888,-0.801 -1.466,-1.009 l 0,0 c -0.21,-0.073 -0.425,-0.023 -0.639,0.028 l 0,0 c -0.289,0.067 -0.578,0.135 -0.854,-0.095 l 0,0 c -0.539,-0.444 -0.51,-1.207 -0.404,-2.195 l 0,0 c -0.873,0.115 -1.459,0.966 -2.405,0.884 l 0,0 c -1.186,-0.098 -2.178,-0.011 -2.178,-0.011 l 0,0 c -0.289,0.093 -1.148,0.368 -2.959,1.236 l 0,0 c -0.089,-0.83 -0.211,-1.927 -0.304,-2.755 l 0,0 c -0.403,0.07 -0.674,0.127 -1.714,1.037 l 0,0 c -1.404,-2.349 -2.628,-3.918 -5.025,-6.437 l 0,0 c 1.003,-0.061 3.102,-0.796 3.111,-0.796 l 0,0 c 1.442,-1.174 2.655,-3.419 3.869,-4.835 l 0,0 c 0.126,-0.937 0.047,-1.705 -0.298,-3.181 l 0,0 c 0.559,-0.671 1.29,-1.576 1.838,-2.273 l 0,0 c -0.73,-1.755 -1.456,-3.351 -2.145,-4.713 l 0,0 -0.358,-0.697 c -0.174,-2.041 1.281,-3.637 1.53,-5.547 l 0,0 c 1.761,-0.439 2.684,-2.526 4.72,-2.442 l 0,0 c 1.568,0.06 1.52,1.295 1.337,2.672 l 0,0 c 2.457,0.484 11.12,5.426 16.772,12.807 l 0,0 c -0.905,-0.039 -3.545,1.323 -3.589,2.014 l 0,0 c 0.466,0.527 0.899,0.637 4.022,0.527 l 0,0 c -0.916,1.31 -1.849,2.584 -2.792,3.813 l 0,0 c 0.542,0.056 1.108,-0.065 2.458,-0.51 l 0,0 c -0.237,0.67 -0.521,1.563 -0.738,2.222 l 0,0 c -4.222,3.776 -5.637,8.384 -5.637,8.418 l 0,0 0.035,0.191 c -2.094,-1.799 -2.282,-1.953 -3.313,-1.283 l 0,0 c -0.515,0.51 -1.037,1.026 -1.547,1.515 l 0,0 c 0.762,0.146 1.498,0.296 2.222,0.443 l 0,0 -2.503,1.291 -0.155,-0.04 z M 236.368,349 c -4.16,-2.465 -4.16,-2.465 -5.024,-2.787 l 0,0 c 2.046,0.322 2.046,0.322 3.029,0.731 l 0,0 c -0.053,-0.446 -0.053,-0.698 0.032,-1.01 l 0,0 c 0.131,0.071 0.395,0.202 1.462,1.057 l 0,0 c 0.452,0.358 0.452,0.358 0.761,2.174 l 0,0 -0.26,-0.165 z m 18.83,0.023 c -0.259,-0.067 -0.434,-0.181 -0.789,-0.528 l 0,0 c -0.789,0.401 -2.369,0.038 -3.899,-0.323 l 0,0 c -1.417,-0.325 -2.158,-0.462 -2.707,-0.462 l 0,0 c 0.184,-1.008 0.475,-1.65 1.727,-3.456 l 0,0 c -4.249,-3.348 -5.615,-4.32 -8.477,-4.242 l 0,0 c 0.497,-0.078 0.956,-0.285 2.218,-0.993 l 0,0 c 3.744,1.202 4.148,1.332 5.121,2.463 l 0,0 c 0.558,-0.048 0.953,-0.246 1.678,-0.838 l 0,0 c 0.575,0.773 1.357,1.804 1.921,2.584 l 0,0 c 2.108,0.12 3.112,1.152 4.121,4.258 l 0,0 c 0.268,0.81 -0.667,1.538 -0.9,1.538 l 0,0 c -0.005,0 -0.01,-10e-4 -0.014,-10e-4 m -66.267,-6.662 c 0.145,0.323 0.336,0.768 0.495,1.097 l 0,0 c -1.826,-0.225 -1.826,-0.225 -6.013,-2.568 l 0,0 c -0.297,0.154 -0.68,0.385 -0.982,0.548 l 0,0 c -1.021,-0.318 -1.021,-0.318 -7.894,-5.469 l 0,0 c 0.136,0.383 0.319,0.734 0.52,1.107 l 0,0 c -1.127,-0.976 -1.242,-1.058 -2.666,-2.392 l 0,0 c 0.384,0.22 0.904,0.521 1.299,0.746 l 0,0 c 0.319,-0.137 0.751,-0.328 1.078,-0.455 l 0,0 c 1.377,0.883 3.032,0.653 4.517,1.163 l 0,0 c -0.386,-0.598 -0.895,-1.415 -1.282,-2.019 l 0,0 c 1.262,0.993 1.262,0.993 3.15,1.788 l 0,0 c 0.829,0.078 0.943,-0.104 1.059,-0.296 l 0,0 c -0.345,-1.119 -0.345,-1.119 -3.632,-4.834 l 0,0 c 0.858,-0.291 1.985,-0.714 2.853,-0.959 l 0,0 c -30.751,-28.041 -30.751,-28.041 -33.688,-32.344 l 0,0 c -1.05,-5.959 -1.05,-5.959 -2.871,-8.992 l 0,0 c -1.095,-2.328 -1.808,-4.121 -2.484,-5.959 l 0,0 c -0.366,-0.989 -0.711,-1.991 -1.057,-3.002 l 0,0 c -0.434,-2.151 -0.475,-4.378 -1.185,-6.48 l 0,0 1.195,0 c -0.01,0.06 0.203,7.456 4.082,11.638 l 0,0 c 0.74,2.821 0.74,2.821 1.916,4.692 l 0,0 c -3.35,-13.834 -3.35,-13.834 -3.487,-15.758 l 0,0 c -0.896,-3.635 -1.655,-6.593 -2.299,-9.575 l 0,0 c 0.356,-3.343 0.817,-7.839 1.394,-11.163 l 0,0 c 18.083,-11.401 26.456,-33.118 26.534,-33.325 l 0,0 c -12.389,-19.734 -2,-25.495 4.872,-29.297 l 0,0 c 0.445,-1.777 0.924,-3.528 1.443,-5.257 l 0,0 c 2.804,-2.923 11.718,-10.974 19.247,-13.156 l 0,0 c 2.687,-13.768 10.523,-24.344 23.279,-31.379 l 0,0 c 0.712,-0.799 1.436,-1.542 2.187,-2.226 l 0,0 c 4.533,-1.411 8.656,-3.945 13.323,-5.065 l 0,0 c 0.202,0.388 0.466,0.916 0.674,1.311 l 0,0 c -0.208,0.242 -0.423,0.505 -0.636,0.764 l 0,0 -2.385,1.173 c -1.945,2.88 -1.945,2.88 -1.502,5.043 l 0,0 -3.14,0.698 c 2.771,0.72 3.479,0.79 6.218,0.732 l 0,0 c -0.364,0.605 -0.911,1.369 -1.385,1.905 l 0,0 c 2.522,1.125 5.364,1.482 7.605,3.251 l 0,0 c 0.58,-0.17 1.351,-0.393 1.916,-0.551 l 0,0 2.001,1.488 c 0.071,5.311 0.071,5.311 -0.844,8.314 l 0,0 c 14.25,8.665 14.25,8.665 11.986,13.86 l 0,0 c 8.148,8.895 8.148,8.895 8.463,14.293 l 0,0 c 0.04,0.647 0.065,1.492 0.082,2.117 l 0,0 c -0.166,0.013 -18.749,0.704 -29.938,11.409 l 0,0 c -1.62,-0.126 -4.054,-0.296 -8.06,-3.409 l 0,0 c -1.001,0.706 -2.33,1.609 -3.319,2.291 l 0,0 2.714,2.863 c -4.429,8.765 -5.449,8.906 -8.831,9.355 l 0,0 c -6.445,0.885 -6.445,0.885 -8.337,7.058 l 0,0 -1.5,1.541 c -4.161,4.044 -9.349,6.064 -14.855,8.204 l 0,0 -3.648,-0.373 c -3.2,1.921 -4.555,2.754 -7.414,4.569 l 0,0 c -4.276,-4.139 -5.643,-3.225 -14.53,2.747 l 0,0 c -0.047,0.743 -2.561,5.058 -7.363,7.958 l 0,0 -0.829,2.056 c 0.22,1.983 0.474,3.95 0.761,5.911 l 0,0 c 1.792,2.092 2.097,2.678 2.782,5.191 l 0,0 c -2.205,0.191 -3.599,-0.664 -6.21,-3.753 l 0,0 c -1.098,0.472 -2.167,0.964 -3.177,1.475 l 0,0 c -0.384,1.525 -1.56,6.98 -0.771,12.605 l 0,0 c 1.936,0.938 1.936,0.938 5.797,8.154 l 0,0 c 7.018,-0.242 7.018,-0.242 11.177,-3.091 l 0,0 c 1.049,0.567 2.426,1.346 3.457,1.921 l 0,0 1.069,-3.445 c 1.356,-0.115 1.637,-0.136 3.736,0.648 l 0,0 c -0.886,-4.731 0.385,-9.45 0.155,-14.158 l 0,0 c 1.646,1.379 3.841,3.221 5.486,4.603 l 0,0 -1.722,3.775 c 0.642,2.241 1.037,3.485 3.021,7.046 l 0,0 c -0.25,-0.955 -0.501,-1.893 -0.733,-2.858 l 0,0 c 2.352,1.623 5.151,2.377 7.54,3.955 l 0,0 c 1.963,0.018 3.543,-0.289 5.15,-0.587 l 0,0 c 5.103,6.185 5.103,6.185 6.637,7.694 l 0,0 c 8.52,3.764 8.52,3.764 30.605,9.801 l 0,0 c -2.07,0.437 -2.07,0.437 -3.736,2.376 l 0,0 c 0.807,0.873 1.866,2.018 2.686,2.897 l 0,0 c -0.193,0.05 -0.193,0.05 -9.887,-1.761 l 0,0 c 4.853,3.983 9.397,4.263 17.897,3.967 l 0,0 c 2.013,-0.084 2.013,-0.084 10.032,6.705 l 0,0 c -2.223,-0.136 -2.881,-0.324 -5.902,-1.585 l 0,0 c 0.387,1.816 0.387,1.816 1.243,3.632 l 0,0 c -0.533,0.977 -1.214,2.261 -1.745,3.23 l 0,0 c 0.541,1.707 0.541,1.707 1.532,3.53 l 0,0 c -2.522,1.262 -4.668,1.146 -7.336,0.549 l 0,0 c -3.612,6.107 -3.612,6.107 -5.529,6.457 l 0,0 c -0.044,-1.065 -0.11,-2.451 -0.171,-3.494 l 0,0 c -1.222,0.104 -2.435,0.213 -3.626,0.334 l 0,0 c -4.617,-5.312 -10.13,-9.729 -14.803,-15.002 l 0,0 c -2.423,2.847 -3.847,11.495 -4.024,14.436 l 0,0 c 1.445,0.747 3.371,1.728 4.807,2.459 l 0,0 3.687,1.905 c 11.734,7.391 11.734,7.391 16.028,5.409 l 0,0 c 0.982,0.906 2.292,2.091 3.284,2.986 l 0,0 -0.808,2.26 c -2.352,-1.12 -3.148,-1.328 -4.503,-1.673 l 0,0 c -1.294,2.612 -0.415,5.394 -0.751,8.087 l 0,0 -0.368,0.155 c -4.591,-8.561 -4.591,-8.561 -9.602,-8.296 l 0,0 c -0.106,0.312 -0.237,0.756 -0.342,1.097 l 0,0 c -2.185,0.171 -2.41,0.279 -4.633,1.141 l 0,0 c -1.02,-0.462 -2.367,-1.076 -3.381,-1.538 l 0,0 c 0.139,0.319 0.329,0.732 0.465,1.027 l 0,0 c -0.629,0.176 -1.493,0.356 -2.149,0.479 l 0,0 c -0.092,0.75 -0.22,1.754 -0.317,2.507 l 0,0 c -9.945,-5.064 -10.032,-4.96 -11.477,-3.281 l 0,0 c 4.623,0.943 5.096,1.035 10.349,3.599 l 0,0 c -0.787,0.213 -1.559,0.438 -2.309,0.681 l 0,0 0.873,2.228 c -0.99,0.333 -1.94,0.674 -2.849,1.019 l 0,0 c -2.549,-1.025 -3.379,-1.076 -5.566,-0.29 l 0,0 c 0.675,1.008 1.574,2.354 2.248,3.342 l 0,0 c -1.379,0.378 -2.148,0.592 -6.28,-0.384 l 0,0 c 0.271,0.604 0.701,1.377 1.09,1.903 l 0,0 c -0.192,0.274 -0.434,0.637 -0.624,0.906 l 0,0 c 0.19,0.273 0.451,0.636 0.644,0.9 l 0,0 c -0.763,0.049 -1.784,0.016 -2.522,-0.111 l 0,0 c 0.547,0.593 1.258,1.378 1.807,1.976 l 0,0 c -1.666,-0.933 -1.666,-0.933 -6.238,-3.127 m 3.773,-45.753 c -1.336,0.812 -2.377,2.09 -3.945,2.558 l 0,0 c 3.32,3.418 4.709,3.67 9.918,1.79 l 0,0 c 1.184,-4.561 2.134,-7.458 5.227,-9.055 l 0,0 -0.14,-0.057 c -4.046,-1.606 -6.878,-5.947 -11.925,-5.349 l 0,0 c 0.693,1.897 2.009,3.561 2.08,5.685 l 0,0 2.867,1.964 c -0.333,-0.028 -0.716,-0.012 -1.113,0.004 l 0,0 c -0.796,0.03 -1.646,0.062 -2.244,-0.256 l 0,0 c -0.042,-0.017 -2.102,-1.817 -4.038,-3.694 l 0,0 c -0.651,-0.629 -1.402,-1.359 -3.443,-2.342 l 0,0 c 0.565,2.947 1.415,5.47 6.756,8.752 m 29.212,45.999 0.136,-0.497 c 3.497,-0.068 3.497,-0.068 3.658,-0.095 l 0,0 c -0.717,-0.407 -1.676,-0.96 -2.397,-1.371 l 0,0 c 1.116,-0.308 1.538,-1.615 2.666,-1.893 l 0,0 c 0.616,-0.116 1.25,-0.215 1.878,-0.32 l 0,0 c 0.616,0.763 1.202,1.521 1.827,2.272 l 0,0 0.27,0.341 c -0.717,-0.494 -1.547,-0.796 -2.319,-1.197 l 0,0 c 0.026,0.719 -0.279,1.389 -0.164,2.118 l 0,0 c 0.099,0.654 0.269,0.999 0.745,1.597 l 0,0 -0.215,0.027 c -0.703,0.098 -1.426,-0.01 -2.117,0.117 l 0,0 c -0.424,0.092 -0.494,0.312 -0.54,0.427 l 0,0 c -1.996,-0.774 -2.771,-1.12 -3.428,-1.526 m 12.92,0.698 c -1.156,-0.549 -1.887,-0.933 -1.887,-0.933 l 0,0 -0.079,-0.159 c -0.361,-0.748 -0.797,-1.52 -1.278,-2.279 l 0,0 c 0.327,-0.043 1.349,-0.158 3.175,1.427 l 0,0 0.117,0.104 c 0.027,0.566 0.06,1.324 0.076,1.905 l 0,0 -0.124,-0.065 z m -16.932,-1.718 -0.164,0.147 0.164,-0.147 z m 0.017,-0.087 c -0.125,-1.109 -1.301,-1.673 -1.389,-2.799 l 0,0 c -0.045,-0.726 0.317,-1.433 0.106,-2.168 l 0,0 c -0.124,-0.433 -0.309,-0.78 -0.499,-1.19 l 0,0 c -0.126,0.017 -1.587,-0.241 -2.549,-0.664 l 0,0 c 1.452,-2.722 6.046,-3.15 11.654,1.414 l 0,0 0.667,0.549 c -2.319,0.413 -2.598,1.154 -2.779,1.67 l 0,0 c -0.449,0.031 -0.987,-0.123 -2.43,-0.709 l 0,0 c -0.56,0.494 -1.291,1.132 -1.837,1.624 l 0,0 c -0.01,1.488 -0.01,1.488 -0.961,2.36 l 0,0 0.017,-0.087 z m 16.259,-2.964 c -0.288,-0.581 -0.809,-1.657 -0.394,-4.801 l 0,0 0.039,-0.242 c 0.6,1.427 0.6,3.052 0.434,5.208 l 0,0 -0.079,-0.165 z m 4.468,-2.108 c -2.29,-0.784 -2.29,-0.784 -3.613,-1.893 l 0,0 c 0.1,-0.054 0.1,-0.054 1.16,-2.205 l 0,0 c 1.963,0.955 5.679,-0.356 5.965,-2.546 l 0,0 c -2.145,-2.591 -3.251,-4.126 -4.727,-6.624 l 0,0 c -1.528,0.05 -2.973,-0.488 -4.454,-0.69 l 0,0 c 1.593,-0.144 3.272,-0.269 4.968,-0.374 l 0,0 1.981,-3.747 c 3.679,7.348 6.037,5.844 8.532,3.291 l 0,0 c 0.633,0.664 1.809,1.883 2.078,3.678 l 0,0 0.057,0.571 c -1.77,-0.621 -1.617,2.151 -1.526,3.632 l 0,0 c -1.56,1.098 -2.042,1.855 -1.987,3.104 l 0,0 c -0.469,0.056 -1.214,0.32 -2.524,0.891 l 0,0 c -1.527,0.662 -2.098,0.696 -2.609,0.526 l 0,0 c -0.29,0.614 -0.669,1.421 -0.971,2.051 l 0,0 c -0.734,-0.504 -1.28,-0.893 -2.538,-1.858 l 0,0 c -0.294,0.142 -0.205,0.703 0.344,2.243 l 0,0 -0.136,-0.05 z m -66.901,-1.772 0.141,0.193 -0.45,-0.406 -0.557,-0.653 0.44,0.252 0.541,0.362 0.297,0.319 0.252,0.389 -0.511,-0.471 0.097,0.127 0.356,0.378 -0.606,-0.49 z m 117.241,-7.182 c -1.479,-0.312 -2.496,-0.704 -3.53,-1.377 l 0,0 c 0.829,-0.565 1.925,-1.351 2.762,-1.932 l 0,0 c 5.455,0.905 5.479,2.041 5.49,3.028 l 0,0 -0.017,0.385 c -0.714,0.109 -1.378,0.163 -2.043,0.163 l 0,0 c -0.851,0 -1.703,-0.089 -2.662,-0.267 m -52.236,-32.391 c 0.028,-0.032 3.341,-2.683 3.882,-4.034 l 0,0 2.58,2.909 -6.538,1.169 0.076,-0.044 z m -95.409,-22.042 0.056,0.016 -0.056,-0.016 z m 31.713,-22.026 0.702,-0.186 c -0.117,0.94 -0.481,3.758 -3.147,3.781 l 0,0 c -1.608,0.032 -2.551,0.121 -4.066,0.351 l 0,0 c 0.474,-0.702 1.745,-2.563 6.511,-3.946 m 0.702,-0.186 c 1.819,-3.199 1.819,-3.199 6.276,-4.252 l 0,0 1.212,1.075 c -0.451,0.181 -0.98,0.739 -2.068,2.188 l 0,0 c -1.149,1.526 -1.669,2.217 -2.482,2.217 l 0,0 c -0.643,0 -1.47,-0.433 -2.938,-1.228 m 12.911,-4.556 c -2.188,-0.647 -2.522,-0.843 -1.571,-4.492 l 0,0 c 2.377,0.224 2.377,0.224 5.229,-3.357 l 0,0 2.785,2.576 -2.199,3.408 -3.648,2.008 -0.596,-0.143 z"
         id="path88" /></clipPath><radialGradient
       fx="0"
       fy="0"
       cx="0"
       cy="0"
       r="1"
       gradientUnits="userSpaceOnUse"
       gradientTransform="matrix(94.231171,0,0,94.231171,215.82813,241.05176)"
       spreadMethod="pad"
       id="radialGradient94"><stop
         style="stop-opacity:1;stop-color:#b6ae85"
         offset="0"
         id="stop96" /><stop
         style="stop-opacity:1;stop-color:#e8dfab"
         offset="1"
         id="stop98" /></radialGradient><clipPath
       clipPathUnits="userSpaceOnUse"
       id="clipPath106"><path
         d="m 0,388.333 506.333,0 L 506.333,0 0,0 0,388.333 z"
         id="path108" /></clipPath><clipPath
       clipPathUnits="userSpaceOnUse"
       id="clipPath118"><path
         d="m 293.14,359.525 c 9.764,-3.919 9.764,-3.919 10.901,-4.669 l 0,0 0.732,0.203 c 2.049,-0.977 3.349,-1.625 6.393,-3.452 l 0,0 c -2.698,0.976 -5.356,2.096 -8.113,2.952 l 0,0 c 3.15,-1.356 3.15,-1.356 4.339,-2.212 l 0,0 c -0.331,-0.116 -0.756,-0.252 -1.078,-0.357 l 0,0 c 0.896,-0.394 2.069,-0.922 2.962,-1.311 l 0,0 c 1.946,-1.919 3.498,-4.181 5.414,-6.124 l 0,0 c 1.366,-1.453 3.203,-3.403 4.477,-4.961 l 0,0 c -1.811,0.654 -4.222,1.548 -6.029,2.19 l 0,0 -0.973,0.85 c 1.002,-0.076 2.344,-0.19 3.34,-0.273 l 0,0 -2.25,1.986 -2.701,1.092 c -1.699,-1.059 -1.913,-0.989 -7.181,0.889 l 0,0 c -0.659,-0.608 -1.447,-1.185 -2.393,-1.751 l 0,0 c 4.699,-5.465 5.2,-6.041 7.614,-10.496 l 0,0 c -0.672,-3.09 -0.672,-3.09 5.135,-7.809 l 0,0 c 0.285,0.204 0.656,0.478 0.95,0.691 l 0,0 c -0.481,1.658 -0.481,1.658 -2.25,3.99 l 0,0 0.31,-0.247 0.554,-0.549 0.551,-0.528 0.518,-0.548 0.525,-0.525 0.515,-0.534 0.486,-0.52 0.508,-0.521 1.028,0 c 1.005,2.826 1.005,2.826 -5.654,11.539 l 0,0 1.91,-0.137 3.249,-4.533 c 0.767,-0.115 1.825,-0.115 2.56,0.066 l 0,0 c 0.917,0.653 1.128,0.852 1.321,1.037 l 0,0 c 5.777,-11.156 5.777,-11.156 5.825,-13.784 l 0,0 c -1.357,0.412 -1.357,0.412 -3.076,1.273 l 0,0 c -0.176,-0.647 -0.425,-1.515 -0.636,-2.151 l 0,0 c -1.31,0.467 -1.623,0.581 -4.851,4.154 l 0,0 c -0.159,-1.064 -0.159,-1.064 2.894,-4.752 l 0,0 c -0.231,-0.603 -0.779,-1.322 -1.278,-1.728 l 0,0 c 0.006,-1.125 0.027,-2.619 0.032,-3.726 l 0,0 c -4.01,1.449 -4.01,1.449 -6.225,2.716 l 0,0 c -0.548,0.449 -0.683,0.636 -0.823,0.828 l 0,0 -0.393,0.566 -0.398,0.587 -0.407,0.565 -0.42,0.538 -0.409,0.571 -0.408,0.559 -0.41,0.549 c -0.586,-0.369 -1.318,-0.954 -1.802,-1.448 l 0,0 c 0.214,-0.863 0.557,-2.328 5.669,-5.641 l 0,0 c 0.051,-1.307 0.117,-3.029 0.15,-4.331 l 0,0 c 0.498,-0.482 1.142,-1.125 1.623,-1.634 l 0,0 -0.22,-0.796 c 1.782,-0.214 1.782,-0.214 6.982,-8.165 l 0,0 c -0.791,-0.443 -1.591,-0.898 -9.994,-1.398 l 0,0 c 1.482,-3.135 3.3,-6.092 4.802,-9.237 l 0,0 -0.791,-0.75 0.167,-0.446 0.156,-0.439 0.149,-0.422 0.155,-0.428 0.138,-0.406 0.144,-0.4 0.145,-0.395 0.133,-0.384 c 7.602,2.656 7.907,2.772 11.777,4.466 l 0,0 c -0.768,1.784 -1.556,3.544 -2.39,5.284 l 0,0 c 2.636,2.414 1.203,6.415 3.483,8.978 l 0,0 c 0.852,0.329 1.649,0.663 2.431,1.02 l 0,0 c 5.839,-5.977 6.071,-6.212 9.25,-5.086 l 0,0 c 0.981,-1.499 0.981,-1.499 2.243,-3.124 l 0,0 c -0.972,1.872 -1.608,3.106 -5.445,8.38 l 0,0 c -0.13,-0.274 -0.303,-0.669 -0.443,-0.949 l 0,0 c -1.131,0.335 -1.131,0.335 -2.915,1.782 l 0,0 c 0.231,0.286 0.553,0.643 0.782,0.917 l 0,0 c 2.273,-0.323 2.273,-0.323 13.737,-9.592 l 0,0 c 0.542,3.815 -3.155,5.725 -3.993,8.923 l 0,0 c 1.096,1.579 0.996,1.762 0.522,2.781 l 0,0 c -1.676,2.338 -2.839,4.967 -4.287,7.437 l 0,0 c 0.637,0.055 1.503,0.055 2.145,-0.033 l 0,0 c 0.023,0.322 0.053,0.757 0.077,1.075 l 0,0 c -0.396,0.346 -0.9,0.823 -1.296,1.168 l 0,0 0.045,0.098 0.061,0.111 0.038,0.105 0.055,0.103 0.05,0.122 0.041,0.114 0.044,0.116 0.062,0.126 c 4.62,-2.869 4.62,-2.869 7.209,-6.821 l 0,0 c -1.423,0.62 -1.622,0.84 -2.495,1.916 l 0,0 c -0.164,-0.126 -0.259,-0.423 -0.364,-0.73 l 0,0 c -0.539,-3.387 -0.556,-3.514 -0.348,-8.379 l 0,0 c 0.542,-0.812 1.06,-1.63 1.567,-2.452 l 0,0 c 1.14,-1.307 1.14,-1.307 3.879,-3.502 l 0,0 c -0.173,1.558 -0.386,3.643 -0.554,5.208 l 0,0 c 0.276,0.147 0.665,0.35 0.95,0.499 l 0,0 c 0.717,-1.404 1.681,-3.314 2.387,-4.731 l 0,0 c 3.024,-5.008 3.402,-5.657 3.663,-8.67 l 0,0 -0.476,-0.399 c -0.037,-0.06 -0.037,-0.06 -6.958,-2.892 l 0,0 c 0.106,-1.57 0,-2.172 -0.81,-4.808 l 0,0 c -3.484,0.445 -9.889,7.244 -9.956,7.31 l 0,0 c -2.76,-1.586 -8.52,-4.879 -16.846,-7.16 l 0,0 0.715,-0.732 c -0.035,-0.328 -0.049,-0.762 -0.073,-1.103 l 0,0 -0.322,-0.075 -0.34,-0.082 -0.337,-0.088 -0.354,-0.095 -0.358,-0.087 -0.375,-0.094 -0.375,-0.104 -0.384,-0.082 c -3.468,-8.917 -6.442,-16.588 -16.09,-30.338 l 0,0 3.062,-2.573 c 1.734,-12.439 1.734,-12.439 -0.138,-16.527 l 0,0 c 15.563,-13.903 15.563,-13.903 18.97,-14.905 l 0,0 c 0.656,1.026 1.518,2.401 2.177,3.438 l 0,0 c 4.84,1.131 9.298,2.359 13.35,3.682 l 0,0 c 12.566,3.973 13.047,4.136 10.887,-22.618 l 0,0 c -0.75,-2.645 -1.597,-5.236 -2.517,-7.769 l 0,0 c -6.354,-10.17 -9.966,-21.844 -17.367,-31.427 l 0,0 c 1.726,1.217 4.357,3.08 11.464,11.827 l 0,0 c 6.89,9.295 7.307,9.857 10.867,16.109 l 0,0 c 5.452,10.656 5.671,11.086 8.092,17.666 l 0,0 c 3.693,11.629 3.84,12.087 5.129,18.989 l 0,0 c 1.717,12.093 1.848,13.08 1.948,21.251 l 0,0 c -0.208,5.157 -0.642,12.042 -1.209,17.195 l 0,0 -0.077,0.407 c -0.005,0.119 -3.457,13.332 -5.674,18.047 l 0,0 c 0.084,0.28 0.126,0.553 0.187,0.838 l 0,0 c 1.156,-1.781 2.012,-3.794 2.669,-5.778 l 0,0 c -0.783,2.939 -1.626,5.919 -2.415,8.417 l 0,0 c -4.394,11.211 -4.563,11.656 -7.851,17.774 l 0,0 c -1.545,2.599 -2.712,4.562 -3.665,6.136 l 0,0 c -0.93,1.456 -1.893,2.888 -2.889,4.301 l 0,0 c -0.491,0.593 -1.66,1.981 -1.975,1.963 l 0,0 0.007,-0.135 c -1.855,2.436 -1.855,2.436 -4.687,6.984 l 0,0 c 1.552,-1.833 2.07,-2.578 2.393,-3.099 l 0,0 -0.089,0.169 c 0.171,-0.121 0.182,-0.121 1.404,-1.728 l 0,0 1.319,-1.624 c 1.226,-1.836 2.732,-4.05 4.118,-6.173 l 0,0 c -2.49,4.088 -3.502,5.446 -6.565,9.438 l 0,0 c -7.374,8.789 -7.816,9.317 -13.274,14.436 l 0,0 c -6.685,5.751 -11.968,10.289 -22.017,16.089 l 0,0 c -5.815,3.29 -12.026,5.953 -18.562,7.901 l 0,0 0.006,-0.005 z m 26.68,-46.504 0.106,-2.453 -2.956,-1.746 c 0.559,1.658 1.91,2.805 2.85,4.199 m -2.338,19.544 c 0.141,-0.722 0.133,-1.47 0.296,-2.2 l 0,0 0.229,-0.224 c 1.687,-1.752 1.96,-2.437 2.054,-2.645 l 0,0 c -0.088,0.225 -0.882,2.397 -2.505,5.037 l 0,0 -0.112,0.198 0.038,-0.166 z m -8.956,-16.653 c -1.013,-0.422 -1.781,-2.051 -2.323,-3.249 l 0,0 0.167,-0.312 0.165,-0.29 0.172,-0.307 0.161,-0.309 0.167,-0.301 0.161,-0.296 0.17,-0.296 0.161,-0.303 0.164,-0.296 0.158,-0.302 0.159,-0.318 0.164,-0.302 0.163,-0.302 0.165,-0.306 0.152,-0.308 0.164,-0.301 c 0.126,2.15 0.68,3.137 1.99,3.555 l 0,0 -2.171,4.588 -0.109,-0.045 z m 45.425,-4.904 c 0.624,-0.975 1.233,-1.962 1.828,-2.96 l 0,0 -0.146,0.319 0.05,-0.071 c -0.629,1.041 -1.361,2.191 -2.131,3.37 l 0,0 c 0.129,-0.212 0.262,-0.431 0.399,-0.658 m 15.642,-39.053 c -0.392,1.87 -0.899,4.276 -1.711,6.726 l 0,0 c 0.629,-2.359 1.219,-4.691 1.711,-6.726"
         id="path120" /></clipPath><radialGradient
       fx="0"
       fy="0"
       cx="0"
       cy="0"
       r="1"
       gradientUnits="userSpaceOnUse"
       gradientTransform="matrix(75.140045,0,0,75.140045,331.60937,259.83301)"
       spreadMethod="pad"
       id="radialGradient126"><stop
         style="stop-opacity:1;stop-color:#b6ae85"
         offset="0"
         id="stop128" /><stop
         style="stop-opacity:1;stop-color:#e8dfab"
         offset="1"
         id="stop130" /></radialGradient><clipPath
       clipPathUnits="userSpaceOnUse"
       id="clipPath138"><path
         d="m 0,388.333 506.333,0 L 506.333,0 0,0 0,388.333 z"
         id="path140" /></clipPath><clipPath
       clipPathUnits="userSpaceOnUse"
       id="clipPath150"><path
         d="m 0,388.333 506.333,0 L 506.333,0 0,0 0,388.333 z"
         id="path152" /></clipPath><clipPath
       clipPathUnits="userSpaceOnUse"
       id="clipPath190"><path
         d="m 132.385,300.482 c -10.968,-4.099 -17.352,-13.434 -18.487,-23.315 l 0,0 c -1.268,-11.001 1.353,-34.181 12.862,-47.43 l 0,0 c 4.904,-5.647 10.202,-9.592 16.078,-12.059 l 0,0 c 7.588,-3.188 15.275,-4.02 15.275,-4.02 l 0,0 11.255,0 c 0,0 22.8,0.854 37.785,14.471 l 0,0 c 13.072,11.878 18.601,35.705 18.49,48.234 l 0,0 c -0.048,5.523 -5.467,17.052 -16.079,21.707 l 0,0 c -9.314,4.086 -27.767,6.141 -44.835,6.141 l 0,0 c -13.259,0 -25.682,-1.239 -32.344,-3.729"
         id="path192" /></clipPath><radialGradient
       fx="0"
       fy="0"
       cx="0"
       cy="0"
       r="1"
       gradientUnits="userSpaceOnUse"
       gradientTransform="matrix(50.931728,0,0,-50.931728,169.625,258.93457)"
       spreadMethod="pad"
       id="radialGradient198"><stop
         style="stop-opacity:1;stop-color:#ecf3f5"
         offset="0"
         id="stop200" /><stop
         style="stop-opacity:1;stop-color:#cbcceb"
         offset="1"
         id="stop202" /></radialGradient><clipPath
       clipPathUnits="userSpaceOnUse"
       id="clipPath210"><path
         d="m 294.774,298.07 c -10.611,-4.655 -16.028,-16.184 -16.077,-21.707 l 0,0 c -0.112,-12.529 5.416,-36.356 18.488,-48.234 l 0,0 c 14.986,-13.617 37.785,-14.471 37.785,-14.471 l 0,0 11.255,0 c 0,0 7.688,0.832 15.276,4.02 l 0,0 c 5.877,2.467 11.176,6.412 16.078,12.059 l 0,0 c 11.508,13.249 14.13,36.429 12.864,47.43 l 0,0 c -1.136,9.881 -7.523,19.216 -18.492,23.315 l 0,0 c -6.66,2.49 -19.082,3.729 -32.341,3.729 l 0,0 c -17.068,0 -35.521,-2.055 -44.836,-6.141"
         id="path212" /></clipPath><radialGradient
       fx="0"
       fy="0"
       cx="0"
       cy="0"
       r="1"
       gradientUnits="userSpaceOnUse"
       gradientTransform="matrix(50.931999,0,0,-50.931999,334.71387,258.93457)"
       spreadMethod="pad"
       id="radialGradient218"><stop
         style="stop-opacity:1;stop-color:#ecf3f5"
         offset="0"
         id="stop220" /><stop
         style="stop-opacity:1;stop-color:#cbcceb"
         offset="1"
         id="stop222" /></radialGradient><clipPath
       clipPathUnits="userSpaceOnUse"
       id="clipPath230"><path
         d="m 0,388.333 506.333,0 L 506.333,0 0,0 0,388.333 z"
         id="path232" /></clipPath><clipPath
       clipPathUnits="userSpaceOnUse"
       id="clipPath238"><path
         d="m 118.698,298.245 103.08,0 0,-82.261 -103.08,0 0,82.261 z"
         id="path240" /></clipPath><clipPath
       clipPathUnits="userSpaceOnUse"
       id="clipPath290"><path
         d="m 288.318,298.245 103.08,0 0,-82.261 -103.08,0 0,82.261 z"
         id="path292" /></clipPath><clipPath
       clipPathUnits="userSpaceOnUse"
       id="clipPath342"><path
         d="m 0,388.333 506.333,0 L 506.333,0 0,0 0,388.333 z"
         id="path344" /></clipPath></defs><sodipodi:namedview
     pagecolor="#ffffff"
     bordercolor="#666666"
     borderopacity="1"
     objecttolerance="10"
     gridtolerance="10"
     guidetolerance="10"
     inkscape:pageopacity="0"
     inkscape:pageshadow="2"
     inkscape:window-width="1366"
     inkscape:window-height="722"
     id="namedview4"
     showgrid="false"
     inkscape:zoom="1.9447227"
     inkscape:cx="337.68881"
     inkscape:cy="278.07357"
     inkscape:window-x="0"
     inkscape:window-y="24"
     inkscape:window-maximized="1"
     inkscape:current-layer="g10" /><g
     id="g10"
     inkscape:groupmode="layer"
     inkscape:label="logotype_remy_mazabraud_v2"
     transform="matrix(1.25,0,0,-1.25,0,485.41625)"><g
       id="g42"
       transform="translate(228.0987,237.1158)"><path
         d="M 0,0 -0.225,0.052 -0.379,0.076 0,0 z"
         style="fill:#38393d;fill-opacity:1;fill-rule:nonzero;stroke:none"
         id="path44" /></g><g
       id="g46"
       transform="translate(227.7197,237.1914)"><path
         d="M 0,0 0.154,-0.023 0.379,-0.075 0,0"
         style="fill:none;stroke:#24221d;stroke-opacity:1;stroke-width:1.5;stroke-linecap:butt;stroke-linejoin:miter;stroke-miterlimit:4;stroke-dasharray:none"
         id="path48" /></g><g
       id="g50"><g
         id="g52"
         clip-path="url(#clipPath54)"><g
           id="g58"><g
             id="g60"><path
               d="m 132.321,245.89 c 0,-67.89 53.578,-122.91 119.672,-122.91 l 0,0 c 66.07,0 119.65,55.02 119.65,122.91 l 0,0 c 0,32.718 -12.466,62.454 -32.768,84.477 l 0,0 c 0,0 -14.666,14.083 -18.384,16.891 l 0,0 c -3.718,2.832 -23.364,12.49 -23.364,12.49 l 0,0 c -13.93,5.842 -29.179,9.077 -45.134,9.077 l 0,0 c -66.094,0 -119.672,-55.045 -119.672,-122.935"
               style="fill:url(#radialGradient62);stroke:none"
               id="path68" /></g></g></g></g><g
       id="g70"><g
         id="g72"
         clip-path="url(#clipPath74)"><g
           id="g78"
           transform="translate(338.875,330.3672)"><path
             d="m 0,0 c 0,0 -14.666,14.083 -18.384,16.891 -3.718,2.832 -23.364,12.49 -23.364,12.49 -13.931,5.842 -29.179,9.077 -45.134,9.077 -66.094,0 -119.673,-55.045 -119.673,-122.936 0,-67.889 53.579,-122.909 119.673,-122.909 66.07,0 119.651,55.02 119.651,122.909 C 32.769,-51.759 20.303,-22.023 0,0"
             style="fill:none;stroke:#24221d;stroke-opacity:1;stroke-width:1.5;stroke-linecap:butt;stroke-linejoin:miter;stroke-miterlimit:10;stroke-dasharray:none"
             id="path80" /></g></g></g><g
       id="g82"><g
         id="g84"
         clip-path="url(#clipPath86)"><g
           id="g90"><g
             id="g92"><path
               d="M 271.891,351.013 271.199,350.81 271,350.734 c -0.577,-0.197 -0.888,-0.801 -1.466,-1.009 l 0,0 c -0.21,-0.073 -0.425,-0.023 -0.639,0.028 l 0,0 c -0.289,0.067 -0.578,0.135 -0.854,-0.095 l 0,0 c -0.539,-0.444 -0.51,-1.207 -0.404,-2.195 l 0,0 c -0.873,0.115 -1.459,0.966 -2.405,0.884 l 0,0 c -1.186,-0.098 -2.178,-0.011 -2.178,-0.011 l 0,0 c -0.289,0.093 -1.148,0.368 -2.959,1.236 l 0,0 c -0.089,-0.83 -0.211,-1.927 -0.304,-2.755 l 0,0 c -0.403,0.07 -0.674,0.127 -1.714,1.037 l 0,0 c -1.404,-2.349 -2.628,-3.918 -5.025,-6.437 l 0,0 c 1.003,-0.061 3.102,-0.796 3.111,-0.796 l 0,0 c 1.442,-1.174 2.655,-3.419 3.869,-4.835 l 0,0 c 0.126,-0.937 0.047,-1.705 -0.298,-3.181 l 0,0 c 0.559,-0.671 1.29,-1.576 1.838,-2.273 l 0,0 c -0.73,-1.755 -1.456,-3.351 -2.145,-4.713 l 0,0 -0.358,-0.697 c -0.174,-2.041 1.281,-3.637 1.53,-5.547 l 0,0 c 1.761,-0.439 2.684,-2.526 4.72,-2.442 l 0,0 c 1.568,0.06 1.52,1.295 1.337,2.672 l 0,0 c 2.457,0.484 11.12,5.426 16.772,12.807 l 0,0 c -0.905,-0.039 -3.545,1.323 -3.589,2.014 l 0,0 c 0.466,0.527 0.899,0.637 4.022,0.527 l 0,0 c -0.916,1.31 -1.849,2.584 -2.792,3.813 l 0,0 c 0.542,0.056 1.108,-0.065 2.458,-0.51 l 0,0 c -0.237,0.67 -0.521,1.563 -0.738,2.222 l 0,0 c -4.222,3.776 -5.637,8.384 -5.637,8.418 l 0,0 0.035,0.191 c -2.094,-1.799 -2.282,-1.953 -3.313,-1.283 l 0,0 c -0.515,0.51 -1.037,1.026 -1.547,1.515 l 0,0 c 0.762,0.146 1.498,0.296 2.222,0.443 l 0,0 -2.503,1.291 -0.155,-0.04 z M 236.368,349 c -4.16,-2.465 -4.16,-2.465 -5.024,-2.787 l 0,0 c 2.046,0.322 2.046,0.322 3.029,0.731 l 0,0 c -0.053,-0.446 -0.053,-0.698 0.032,-1.01 l 0,0 c 0.131,0.071 0.395,0.202 1.462,1.057 l 0,0 c 0.452,0.358 0.452,0.358 0.761,2.174 l 0,0 -0.26,-0.165 z m 18.83,0.023 c -0.259,-0.067 -0.434,-0.181 -0.789,-0.528 l 0,0 c -0.789,0.401 -2.369,0.038 -3.899,-0.323 l 0,0 c -1.417,-0.325 -2.158,-0.462 -2.707,-0.462 l 0,0 c 0.184,-1.008 0.475,-1.65 1.727,-3.456 l 0,0 c -4.249,-3.348 -5.615,-4.32 -8.477,-4.242 l 0,0 c 0.497,-0.078 0.956,-0.285 2.218,-0.993 l 0,0 c 3.744,1.202 4.148,1.332 5.121,2.463 l 0,0 c 0.558,-0.048 0.953,-0.246 1.678,-0.838 l 0,0 c 0.575,0.773 1.357,1.804 1.921,2.584 l 0,0 c 2.108,0.12 3.112,1.152 4.121,4.258 l 0,0 c 0.268,0.81 -0.667,1.538 -0.9,1.538 l 0,0 c -0.005,0 -0.01,-10e-4 -0.014,-10e-4 m -66.267,-6.662 c 0.145,0.323 0.336,0.768 0.495,1.097 l 0,0 c -1.826,-0.225 -1.826,-0.225 -6.013,-2.568 l 0,0 c -0.297,0.154 -0.68,0.385 -0.982,0.548 l 0,0 c -1.021,-0.318 -1.021,-0.318 -7.894,-5.469 l 0,0 c 0.136,0.383 0.319,0.734 0.52,1.107 l 0,0 c -1.127,-0.976 -1.242,-1.058 -2.666,-2.392 l 0,0 c 0.384,0.22 0.904,0.521 1.299,0.746 l 0,0 c 0.319,-0.137 0.751,-0.328 1.078,-0.455 l 0,0 c 1.377,0.883 3.032,0.653 4.517,1.163 l 0,0 c -0.386,-0.598 -0.895,-1.415 -1.282,-2.019 l 0,0 c 1.262,0.993 1.262,0.993 3.15,1.788 l 0,0 c 0.829,0.078 0.943,-0.104 1.059,-0.296 l 0,0 c -0.345,-1.119 -0.345,-1.119 -3.632,-4.834 l 0,0 c 0.858,-0.291 1.985,-0.714 2.853,-0.959 l 0,0 c -30.751,-28.041 -30.751,-28.041 -33.688,-32.344 l 0,0 c -1.05,-5.959 -1.05,-5.959 -2.871,-8.992 l 0,0 c -1.095,-2.328 -1.808,-4.121 -2.484,-5.959 l 0,0 c -0.366,-0.989 -0.711,-1.991 -1.057,-3.002 l 0,0 c -0.434,-2.151 -0.475,-4.378 -1.185,-6.48 l 0,0 1.195,0 c -0.01,0.06 0.203,7.456 4.082,11.638 l 0,0 c 0.74,2.821 0.74,2.821 1.916,4.692 l 0,0 c -3.35,-13.834 -3.35,-13.834 -3.487,-15.758 l 0,0 c -0.896,-3.635 -1.655,-6.593 -2.299,-9.575 l 0,0 c 0.356,-3.343 0.817,-7.839 1.394,-11.163 l 0,0 c 18.083,-11.401 26.456,-33.118 26.534,-33.325 l 0,0 c -12.389,-19.734 -2,-25.495 4.872,-29.297 l 0,0 c 0.445,-1.777 0.924,-3.528 1.443,-5.257 l 0,0 c 2.804,-2.923 11.718,-10.974 19.247,-13.156 l 0,0 c 2.687,-13.768 10.523,-24.344 23.279,-31.379 l 0,0 c 0.712,-0.799 1.436,-1.542 2.187,-2.226 l 0,0 c 4.533,-1.411 8.656,-3.945 13.323,-5.065 l 0,0 c 0.202,0.388 0.466,0.916 0.674,1.311 l 0,0 c -0.208,0.242 -0.423,0.505 -0.636,0.764 l 0,0 -2.385,1.173 c -1.945,2.88 -1.945,2.88 -1.502,5.043 l 0,0 -3.14,0.698 c 2.771,0.72 3.479,0.79 6.218,0.732 l 0,0 c -0.364,0.605 -0.911,1.369 -1.385,1.905 l 0,0 c 2.522,1.125 5.364,1.482 7.605,3.251 l 0,0 c 0.58,-0.17 1.351,-0.393 1.916,-0.551 l 0,0 2.001,1.488 c 0.071,5.311 0.071,5.311 -0.844,8.314 l 0,0 c 14.25,8.665 14.25,8.665 11.986,13.86 l 0,0 c 8.148,8.895 8.148,8.895 8.463,14.293 l 0,0 c 0.04,0.647 0.065,1.492 0.082,2.117 l 0,0 c -0.166,0.013 -18.749,0.704 -29.938,11.409 l 0,0 c -1.62,-0.126 -4.054,-0.296 -8.06,-3.409 l 0,0 c -1.001,0.706 -2.33,1.609 -3.319,2.291 l 0,0 2.714,2.863 c -4.429,8.765 -5.449,8.906 -8.831,9.355 l 0,0 c -6.445,0.885 -6.445,0.885 -8.337,7.058 l 0,0 -1.5,1.541 c -4.161,4.044 -9.349,6.064 -14.855,8.204 l 0,0 -3.648,-0.373 c -3.2,1.921 -4.555,2.754 -7.414,4.569 l 0,0 c -4.276,-4.139 -5.643,-3.225 -14.53,2.747 l 0,0 c -0.047,0.743 -2.561,5.058 -7.363,7.958 l 0,0 -0.829,2.056 c 0.22,1.983 0.474,3.95 0.761,5.911 l 0,0 c 1.792,2.092 2.097,2.678 2.782,5.191 l 0,0 c -2.205,0.191 -3.599,-0.664 -6.21,-3.753 l 0,0 c -1.098,0.472 -2.167,0.964 -3.177,1.475 l 0,0 c -0.384,1.525 -1.56,6.98 -0.771,12.605 l 0,0 c 1.936,0.938 1.936,0.938 5.797,8.154 l 0,0 c 7.018,-0.242 7.018,-0.242 11.177,-3.091 l 0,0 c 1.049,0.567 2.426,1.346 3.457,1.921 l 0,0 1.069,-3.445 c 1.356,-0.115 1.637,-0.136 3.736,0.648 l 0,0 c -0.886,-4.731 0.385,-9.45 0.155,-14.158 l 0,0 c 1.646,1.379 3.841,3.221 5.486,4.603 l 0,0 -1.722,3.775 c 0.642,2.241 1.037,3.485 3.021,7.046 l 0,0 c -0.25,-0.955 -0.501,-1.893 -0.733,-2.858 l 0,0 c 2.352,1.623 5.151,2.377 7.54,3.955 l 0,0 c 1.963,0.018 3.543,-0.289 5.15,-0.587 l 0,0 c 5.103,6.185 5.103,6.185 6.637,7.694 l 0,0 c 8.52,3.764 8.52,3.764 30.605,9.801 l 0,0 c -2.07,0.437 -2.07,0.437 -3.736,2.376 l 0,0 c 0.807,0.873 1.866,2.018 2.686,2.897 l 0,0 c -0.193,0.05 -0.193,0.05 -9.887,-1.761 l 0,0 c 4.853,3.983 9.397,4.263 17.897,3.967 l 0,0 c 2.013,-0.084 2.013,-0.084 10.032,6.705 l 0,0 c -2.223,-0.136 -2.881,-0.324 -5.902,-1.585 l 0,0 c 0.387,1.816 0.387,1.816 1.243,3.632 l 0,0 c -0.533,0.977 -1.214,2.261 -1.745,3.23 l 0,0 c 0.541,1.707 0.541,1.707 1.532,3.53 l 0,0 c -2.522,1.262 -4.668,1.146 -7.336,0.549 l 0,0 c -3.612,6.107 -3.612,6.107 -5.529,6.457 l 0,0 c -0.044,-1.065 -0.11,-2.451 -0.171,-3.494 l 0,0 c -1.222,0.104 -2.435,0.213 -3.626,0.334 l 0,0 c -4.617,-5.312 -10.13,-9.729 -14.803,-15.002 l 0,0 c -2.423,2.847 -3.847,11.495 -4.024,14.436 l 0,0 c 1.445,0.747 3.371,1.728 4.807,2.459 l 0,0 3.687,1.905 c 11.734,7.391 11.734,7.391 16.028,5.409 l 0,0 c 0.982,0.906 2.292,2.091 3.284,2.986 l 0,0 -0.808,2.26 c -2.352,-1.12 -3.148,-1.328 -4.503,-1.673 l 0,0 c -1.294,2.612 -0.415,5.394 -0.751,8.087 l 0,0 -0.368,0.155 c -4.591,-8.561 -4.591,-8.561 -9.602,-8.296 l 0,0 c -0.106,0.312 -0.237,0.756 -0.342,1.097 l 0,0 c -2.185,0.171 -2.41,0.279 -4.633,1.141 l 0,0 c -1.02,-0.462 -2.367,-1.076 -3.381,-1.538 l 0,0 c 0.139,0.319 0.329,0.732 0.465,1.027 l 0,0 c -0.629,0.176 -1.493,0.356 -2.149,0.479 l 0,0 c -0.092,0.75 -0.22,1.754 -0.317,2.507 l 0,0 c -9.945,-5.064 -10.032,-4.96 -11.477,-3.281 l 0,0 c 4.623,0.943 5.096,1.035 10.349,3.599 l 0,0 c -0.787,0.213 -1.559,0.438 -2.309,0.681 l 0,0 0.873,2.228 c -0.99,0.333 -1.94,0.674 -2.849,1.019 l 0,0 c -2.549,-1.025 -3.379,-1.076 -5.566,-0.29 l 0,0 c 0.675,1.008 1.574,2.354 2.248,3.342 l 0,0 c -1.379,0.378 -2.148,0.592 -6.28,-0.384 l 0,0 c 0.271,0.604 0.701,1.377 1.09,1.903 l 0,0 c -0.192,0.274 -0.434,0.637 -0.624,0.906 l 0,0 c 0.19,0.273 0.451,0.636 0.644,0.9 l 0,0 c -0.763,0.049 -1.784,0.016 -2.522,-0.111 l 0,0 c 0.547,0.593 1.258,1.378 1.807,1.976 l 0,0 c -1.666,-0.933 -1.666,-0.933 -6.238,-3.127 m 3.773,-45.753 c -1.336,0.812 -2.377,2.09 -3.945,2.558 l 0,0 c 3.32,3.418 4.709,3.67 9.918,1.79 l 0,0 c 1.184,-4.561 2.134,-7.458 5.227,-9.055 l 0,0 -0.14,-0.057 c -4.046,-1.606 -6.878,-5.947 -11.925,-5.349 l 0,0 c 0.693,1.897 2.009,3.561 2.08,5.685 l 0,0 2.867,1.964 c -0.333,-0.028 -0.716,-0.012 -1.113,0.004 l 0,0 c -0.796,0.03 -1.646,0.062 -2.244,-0.256 l 0,0 c -0.042,-0.017 -2.102,-1.817 -4.038,-3.694 l 0,0 c -0.651,-0.629 -1.402,-1.359 -3.443,-2.342 l 0,0 c 0.565,2.947 1.415,5.47 6.756,8.752 m 29.212,45.999 0.136,-0.497 c 3.497,-0.068 3.497,-0.068 3.658,-0.095 l 0,0 c -0.717,-0.407 -1.676,-0.96 -2.397,-1.371 l 0,0 c 1.116,-0.308 1.538,-1.615 2.666,-1.893 l 0,0 c 0.616,-0.116 1.25,-0.215 1.878,-0.32 l 0,0 c 0.616,0.763 1.202,1.521 1.827,2.272 l 0,0 0.27,0.341 c -0.717,-0.494 -1.547,-0.796 -2.319,-1.197 l 0,0 c 0.026,0.719 -0.279,1.389 -0.164,2.118 l 0,0 c 0.099,0.654 0.269,0.999 0.745,1.597 l 0,0 -0.215,0.027 c -0.703,0.098 -1.426,-0.01 -2.117,0.117 l 0,0 c -0.424,0.092 -0.494,0.312 -0.54,0.427 l 0,0 c -1.996,-0.774 -2.771,-1.12 -3.428,-1.526 m 12.92,0.698 c -1.156,-0.549 -1.887,-0.933 -1.887,-0.933 l 0,0 -0.079,-0.159 c -0.361,-0.748 -0.797,-1.52 -1.278,-2.279 l 0,0 c 0.327,-0.043 1.349,-0.158 3.175,1.427 l 0,0 0.117,0.104 c 0.027,0.566 0.06,1.324 0.076,1.905 l 0,0 -0.124,-0.065 z m -16.932,-1.718 -0.164,0.147 0.164,-0.147 z m 0.017,-0.087 c -0.125,-1.109 -1.301,-1.673 -1.389,-2.799 l 0,0 c -0.045,-0.726 0.317,-1.433 0.106,-2.168 l 0,0 c -0.124,-0.433 -0.309,-0.78 -0.499,-1.19 l 0,0 c -0.126,0.017 -1.587,-0.241 -2.549,-0.664 l 0,0 c 1.452,-2.722 6.046,-3.15 11.654,1.414 l 0,0 0.667,0.549 c -2.319,0.413 -2.598,1.154 -2.779,1.67 l 0,0 c -0.449,0.031 -0.987,-0.123 -2.43,-0.709 l 0,0 c -0.56,0.494 -1.291,1.132 -1.837,1.624 l 0,0 c -0.01,1.488 -0.01,1.488 -0.961,2.36 l 0,0 0.017,-0.087 z m 16.259,-2.964 c -0.288,-0.581 -0.809,-1.657 -0.394,-4.801 l 0,0 0.039,-0.242 c 0.6,1.427 0.6,3.052 0.434,5.208 l 0,0 -0.079,-0.165 z m 4.468,-2.108 c -2.29,-0.784 -2.29,-0.784 -3.613,-1.893 l 0,0 c 0.1,-0.054 0.1,-0.054 1.16,-2.205 l 0,0 c 1.963,0.955 5.679,-0.356 5.965,-2.546 l 0,0 c -2.145,-2.591 -3.251,-4.126 -4.727,-6.624 l 0,0 c -1.528,0.05 -2.973,-0.488 -4.454,-0.69 l 0,0 c 1.593,-0.144 3.272,-0.269 4.968,-0.374 l 0,0 1.981,-3.747 c 3.679,7.348 6.037,5.844 8.532,3.291 l 0,0 c 0.633,0.664 1.809,1.883 2.078,3.678 l 0,0 0.057,0.571 c -1.77,-0.621 -1.617,2.151 -1.526,3.632 l 0,0 c -1.56,1.098 -2.042,1.855 -1.987,3.104 l 0,0 c -0.469,0.056 -1.214,0.32 -2.524,0.891 l 0,0 c -1.527,0.662 -2.098,0.696 -2.609,0.526 l 0,0 c -0.29,0.614 -0.669,1.421 -0.971,2.051 l 0,0 c -0.734,-0.504 -1.28,-0.893 -2.538,-1.858 l 0,0 c -0.294,0.142 -0.205,0.703 0.344,2.243 l 0,0 -0.136,-0.05 z m -66.901,-1.772 0.141,0.193 -0.45,-0.406 -0.557,-0.653 0.44,0.252 0.541,0.362 0.297,0.319 0.252,0.389 -0.511,-0.471 0.097,0.127 0.356,0.378 -0.606,-0.49 z m 117.241,-7.182 c -1.479,-0.312 -2.496,-0.704 -3.53,-1.377 l 0,0 c 0.829,-0.565 1.925,-1.351 2.762,-1.932 l 0,0 c 5.455,0.905 5.479,2.041 5.49,3.028 l 0,0 -0.017,0.385 c -0.714,0.109 -1.378,0.163 -2.043,0.163 l 0,0 c -0.851,0 -1.703,-0.089 -2.662,-0.267 m -52.236,-32.391 c 0.028,-0.032 3.341,-2.683 3.882,-4.034 l 0,0 2.58,2.909 -6.538,1.169 0.076,-0.044 z m -95.409,-22.042 0.056,0.016 -0.056,-0.016 z m 31.713,-22.026 0.702,-0.186 c -0.117,0.94 -0.481,3.758 -3.147,3.781 l 0,0 c -1.608,0.032 -2.551,0.121 -4.066,0.351 l 0,0 c 0.474,-0.702 1.745,-2.563 6.511,-3.946 m 0.702,-0.186 c 1.819,-3.199 1.819,-3.199 6.276,-4.252 l 0,0 1.212,1.075 c -0.451,0.181 -0.98,0.739 -2.068,2.188 l 0,0 c -1.149,1.526 -1.669,2.217 -2.482,2.217 l 0,0 c -0.643,0 -1.47,-0.433 -2.938,-1.228 m 12.911,-4.556 c -2.188,-0.647 -2.522,-0.843 -1.571,-4.492 l 0,0 c 2.377,0.224 2.377,0.224 5.229,-3.357 l 0,0 2.785,2.576 -2.199,3.408 -3.648,2.008 -0.596,-0.143 z"
               style="fill:url(#radialGradient94);stroke:none"
               id="path100" /></g></g></g></g><g
       id="g102"><g
         id="g104"
         clip-path="url(#clipPath106)"><g
           id="g110"
           transform="translate(277.1523,348.8955)"><path
             d="m 0,0 0.035,0.192 c -2.095,-1.799 -2.282,-1.953 -3.313,-1.284 -0.516,0.511 -1.037,1.027 -1.547,1.515 0.762,0.147 1.498,0.297 2.222,0.444 L -5.106,2.157 -5.262,2.118 -5.953,1.915 -6.152,1.839 C -6.729,1.642 -7.04,1.037 -7.618,0.829 -8.109,0.659 -8.628,1.164 -9.111,0.763 -9.65,0.318 -9.621,-0.444 -9.516,-1.433 c -0.873,0.116 -1.459,0.966 -2.405,0.884 -1.185,-0.097 -2.178,-0.011 -2.178,-0.011 -0.289,0.093 -1.147,0.369 -2.958,1.236 -0.089,-0.829 -0.212,-1.927 -0.304,-2.755 -0.404,0.07 -0.674,0.127 -1.714,1.037 -1.404,-2.349 -2.628,-3.918 -5.026,-6.437 1.003,-0.061 3.102,-0.795 3.112,-0.795 1.442,-1.175 2.655,-3.419 3.868,-4.835 0.126,-0.937 0.048,-1.705 -0.298,-3.182 0.561,-0.67 1.291,-1.575 1.838,-2.272 -0.729,-1.755 -1.455,-3.352 -2.145,-4.713 l -0.357,-0.698 c -0.175,-2.041 1.281,-3.636 1.529,-5.547 1.762,-0.439 2.685,-2.525 4.721,-2.441 1.567,0.06 1.52,1.295 1.336,2.672 2.458,0.483 11.121,5.426 16.772,12.807 -0.905,-0.039 -3.545,1.323 -3.588,2.013 0.465,0.528 0.899,0.637 4.022,0.528 -0.917,1.31 -1.849,2.584 -2.792,3.813 0.542,0.056 1.107,-0.066 2.458,-0.511 C 6.138,-9.97 5.854,-9.076 5.637,-8.417 1.415,-4.642 0,-0.033 0,0 m -21.04,-1.409 c 0.273,0.828 -0.709,1.569 -0.915,1.536 -0.258,-0.066 -0.434,-0.181 -0.788,-0.527 -0.789,0.4 -2.369,0.038 -3.9,-0.324 -1.417,-0.324 -2.157,-0.461 -2.706,-0.461 0.184,-1.009 0.474,-1.651 1.727,-3.457 -4.25,-3.347 -5.615,-4.319 -8.477,-4.242 0.496,-0.077 0.955,-0.285 2.217,-0.992 3.744,1.201 4.149,1.332 5.121,2.463 0.559,-0.049 0.953,-0.246 1.678,-0.839 0.575,0.773 1.357,1.805 1.922,2.585 2.107,0.12 3.112,1.151 4.121,4.258 m -20.245,-0.495 c 0.452,0.357 0.452,0.357 0.761,2.174 l -0.26,-0.166 c -4.16,-2.464 -4.16,-2.464 -5.025,-2.787 2.046,0.323 2.046,0.323 3.03,0.731 -0.054,-0.445 -0.054,-0.697 0.032,-1.01 0.131,0.071 0.394,0.203 1.462,1.058 m -1.101,-5.63 0.117,0.104 c 0.028,0.566 0.061,1.324 0.077,1.905 l -0.124,-0.066 c -1.156,-0.549 -1.887,-0.932 -1.887,-0.932 l -0.079,-0.16 c -0.362,-0.747 -0.797,-1.519 -1.278,-2.278 0.327,-0.043 1.348,-0.158 3.174,1.427 m -5.082,-0.658 0.27,0.34 c -0.717,-0.494 -1.547,-0.795 -2.32,-1.196 0.027,0.719 -0.278,1.389 -0.164,2.117 0.099,0.655 0.27,0.999 0.745,1.598 l -0.214,0.027 c -0.703,0.098 -1.426,-0.01 -2.118,0.116 -0.423,0.092 -0.494,0.312 -0.54,0.427 -1.995,-0.773 -2.771,-1.119 -3.427,-1.525 l 0.135,-0.498 c 3.497,-0.068 3.497,-0.068 3.659,-0.094 -0.717,-0.407 -1.676,-0.961 -2.397,-1.372 1.116,-0.308 1.537,-1.614 2.666,-1.893 0.615,-0.116 1.25,-0.214 1.877,-0.319 0.616,0.762 1.202,1.521 1.828,2.272 m 4.102,-6.968 0.039,-0.242 c 0.599,1.426 0.599,3.051 0.433,5.207 l -0.079,-0.164 c -0.288,-0.581 -0.808,-1.658 -0.393,-4.801 m -15.883,7.851 0,0 -0.164,0.148 0.164,-0.148 m 7.341,-5.493 0.667,0.549 c -2.319,0.412 -2.598,1.153 -2.78,1.669 -0.448,0.032 -0.986,-0.122 -2.429,-0.708 -0.561,0.493 -1.291,1.131 -1.838,1.624 -0.01,1.487 -0.01,1.487 -0.961,2.359 l 0.018,-0.087 c -0.125,-1.109 -1.301,-1.673 -1.389,-2.799 -0.045,-0.725 0.316,-1.433 0.105,-2.167 -0.124,-0.434 -0.308,-0.781 -0.499,-1.191 -0.126,0.017 -1.587,-0.241 -2.549,-0.663 1.453,-2.722 6.046,-3.151 11.655,1.414 m 25.294,-10.776 0.056,0.571 c -1.769,-0.62 -1.617,2.152 -1.526,3.632 -1.56,1.098 -2.042,1.855 -1.986,3.104 -0.469,0.057 -1.214,0.321 -2.525,0.891 -1.527,0.662 -2.097,0.696 -2.608,0.526 -0.29,0.615 -0.669,1.421 -0.972,2.052 -0.733,-0.505 -1.279,-0.894 -2.538,-1.859 -0.293,0.142 -0.204,0.703 0.345,2.244 l -0.137,-0.051 c -2.289,-0.783 -2.289,-0.783 -3.612,-1.892 0.099,-0.054 0.099,-0.054 1.16,-2.205 1.963,0.955 5.679,-0.357 5.965,-2.546 -2.146,-2.591 -3.252,-4.126 -4.728,-6.624 -1.527,0.049 -2.972,-0.488 -4.454,-0.691 1.593,-0.143 3.273,-0.268 4.969,-0.373 l 1.981,-3.748 c 3.679,7.348 6.037,5.844 8.532,3.292 0.632,0.664 1.809,1.883 2.078,3.677 m 12.267,-139.866 c 0.039,0.647 0.065,1.492 0.082,2.117 -0.167,0.013 -18.75,0.703 -29.938,11.409 -1.62,-0.126 -4.054,-0.296 -8.06,-3.409 -1.002,0.705 -2.33,1.609 -3.319,2.29 l 2.713,2.863 c -4.429,8.765 -5.448,8.906 -8.83,9.356 -6.446,0.884 -6.446,0.884 -8.337,7.057 l -1.5,1.541 c -4.161,4.045 -9.35,6.065 -14.855,8.204 l -3.649,-0.373 c -3.199,1.921 -4.555,2.754 -7.413,4.57 -4.276,-4.14 -5.643,-3.225 -14.53,2.746 -0.047,0.744 -2.561,5.058 -7.364,7.959 l -0.828,2.055 c 0.219,1.983 0.473,3.951 0.761,5.912 1.792,2.091 2.098,2.677 2.782,5.191 -2.205,0.19 -3.599,-0.664 -6.21,-3.754 -1.098,0.473 -2.167,0.965 -3.177,1.476 -0.384,1.525 -1.56,6.979 -0.771,12.604 1.936,0.939 1.936,0.939 5.797,8.154 7.017,-0.242 7.017,-0.242 11.177,-3.09 1.049,0.567 2.426,1.345 3.457,1.92 l 1.069,-3.445 c 1.356,-0.114 1.637,-0.136 3.735,0.649 -0.885,-4.731 0.386,-9.451 0.156,-14.159 1.646,1.379 3.84,3.221 5.486,4.604 l -1.723,3.774 c 0.643,2.242 1.038,3.486 3.022,7.046 -0.25,-0.954 -0.501,-1.892 -0.733,-2.858 2.352,1.624 5.151,2.377 7.539,3.956 1.963,0.017 3.543,-0.289 5.151,-0.587 5.102,6.185 5.102,6.185 6.636,7.693 8.521,3.765 8.521,3.765 30.606,9.802 -2.07,0.437 -2.07,0.437 -3.736,2.375 0.806,0.873 1.866,2.019 2.686,2.898 -0.194,0.049 -0.194,0.049 -9.888,-1.761 4.854,3.982 9.397,4.263 17.898,3.967 2.013,-0.084 2.013,-0.084 10.031,6.704 -2.222,-0.136 -2.88,-0.324 -5.901,-1.585 0.387,1.816 0.387,1.816 1.243,3.633 -0.533,0.976 -1.214,2.26 -1.745,3.23 0.541,1.707 0.541,1.707 1.531,3.529 -2.521,1.262 -4.667,1.146 -7.336,0.549 -3.611,6.108 -3.611,6.108 -5.528,6.458 -0.044,-1.065 -0.111,-2.452 -0.171,-3.495 -1.223,0.105 -2.436,0.214 -3.626,0.334 -4.617,-5.311 -10.131,-9.728 -14.804,-15.002 -2.423,2.848 -3.846,11.496 -4.023,14.437 1.445,0.747 3.371,1.728 4.806,2.459 l 3.688,1.904 c 11.733,7.391 11.733,7.391 16.028,5.409 0.982,0.906 2.291,2.092 3.284,2.986 l -0.808,2.26 c -2.352,-1.119 -3.149,-1.327 -4.504,-1.673 -1.293,2.613 -0.415,5.395 -0.75,8.087 l -0.368,0.155 c -4.591,-8.56 -4.591,-8.56 -9.603,-8.295 -0.106,0.311 -0.236,0.755 -0.342,1.096 -2.185,0.171 -2.41,0.28 -4.632,1.142 -1.021,-0.462 -2.368,-1.076 -3.381,-1.538 0.138,0.319 0.328,0.731 0.465,1.026 -0.629,0.177 -1.493,0.357 -2.149,0.479 -0.093,0.751 -0.221,1.755 -0.318,2.507 -9.944,-5.064 -10.031,-4.959 -11.477,-3.281 4.623,0.944 5.096,1.036 10.35,3.599 -0.787,0.214 -1.56,0.438 -2.31,0.682 l 0.874,2.227 c -0.99,0.334 -1.94,0.674 -2.849,1.02 -2.549,-1.026 -3.379,-1.077 -5.566,-0.29 0.675,1.008 1.574,2.353 2.247,3.341 -1.379,0.378 -2.147,0.593 -6.279,-0.383 0.271,0.603 0.701,1.377 1.09,1.903 -0.192,0.273 -0.434,0.637 -0.625,0.905 0.191,0.274 0.451,0.637 0.644,0.901 -0.762,0.048 -1.783,0.015 -2.521,-0.112 0.546,0.594 1.258,1.378 1.807,1.977 -1.666,-0.934 -1.666,-0.934 -6.239,-3.127 0.145,0.322 0.337,0.767 0.495,1.097 -1.825,-0.225 -1.825,-0.225 -6.012,-2.568 -0.297,0.153 -0.68,0.384 -0.983,0.548 -1.02,-0.318 -1.02,-0.318 -7.893,-5.47 0.136,0.383 0.319,0.735 0.52,1.108 -1.127,-0.977 -1.242,-1.059 -2.666,-2.393 0.383,0.221 0.904,0.522 1.299,0.746 0.318,-0.137 0.75,-0.328 1.078,-0.455 1.377,0.884 3.032,0.653 4.516,1.164 -0.385,-0.598 -0.895,-1.416 -1.281,-2.019 1.261,0.993 1.261,0.993 3.15,1.788 0.828,0.078 0.942,-0.104 1.059,-0.296 -0.346,-1.119 -0.346,-1.119 -3.632,-4.834 0.858,-0.291 1.985,-0.714 2.852,-0.96 -30.75,-28.04 -30.75,-28.04 -33.687,-32.343 -1.051,-5.959 -1.051,-5.959 -2.871,-8.993 -1.096,-2.327 -1.809,-4.12 -2.485,-5.959 -0.365,-0.988 -0.711,-1.99 -1.056,-3.001 -0.434,-2.151 -0.475,-4.379 -1.185,-6.48 l 1.194,0 c -0.009,0.06 0.204,7.456 4.082,11.637 0.741,2.821 0.741,2.821 1.916,4.693 -3.349,-13.834 -3.349,-13.834 -3.486,-15.759 -0.896,-3.634 -1.655,-6.592 -2.3,-9.575 0.357,-3.342 0.818,-7.838 1.395,-11.163 18.082,-11.401 26.456,-33.118 26.534,-33.324 -12.39,-19.734 -2.001,-25.495 4.872,-29.298 0.444,-1.776 0.923,-3.528 1.443,-5.256 2.804,-2.924 11.717,-10.974 19.247,-13.157 2.686,-13.767 10.523,-24.343 23.279,-31.379 0.712,-0.798 1.435,-1.541 2.186,-2.226 4.534,-1.41 8.657,-3.944 13.324,-5.065 0.202,0.389 0.465,0.916 0.674,1.311 -0.209,0.242 -0.422,0.506 -0.636,0.765 l -2.385,1.172 c -1.945,2.881 -1.945,2.881 -1.502,5.043 l -3.141,0.698 c 2.772,0.72 3.479,0.791 6.219,0.733 -0.365,0.605 -0.911,1.368 -1.386,1.904 2.523,1.125 5.365,1.483 7.606,3.251 0.58,-0.17 1.35,-0.392 1.916,-0.55 l 2.001,1.488 c 0.07,5.31 0.07,5.31 -0.844,8.314 14.25,8.664 14.25,8.664 11.985,13.86 8.148,8.894 8.148,8.894 8.464,14.293 m -59.041,106.392 c -4.047,-1.605 -6.879,-5.947 -11.925,-5.348 0.692,1.897 2.009,3.561 2.08,5.685 l 2.867,1.964 c -1,-0.083 -2.462,0.225 -3.358,-0.252 -0.041,-0.018 -2.101,-1.817 -4.037,-3.694 -0.651,-0.63 -1.402,-1.36 -3.443,-2.342 0.565,2.946 1.415,5.47 6.756,8.751 -1.336,0.812 -2.377,2.091 -3.946,2.559 3.321,3.417 4.709,3.669 9.918,1.789 1.185,-4.56 2.134,-7.457 5.228,-9.055 l -0.14,-0.057 m 89.947,35.35 -0.018,0.385 c -1.629,0.247 -2.997,0.213 -4.705,-0.105 -1.48,-0.311 -2.496,-0.703 -3.53,-1.377 0.829,-0.564 1.924,-1.35 2.762,-1.931 5.455,0.905 5.479,2.041 5.491,3.028 m -122.39,6.848 0.541,0.363 0.297,0.318 0.252,0.39 -0.511,-0.472 0.097,0.127 0.355,0.378 -0.605,-0.489 0.141,0.193 -0.45,-0.407 -0.557,-0.652 0.44,0.251 m 69.312,-42.993 2.581,2.909 -6.539,1.169 0.077,-0.044 c 0.028,-0.032 3.34,-2.682 3.881,-4.034 m -99.234,-17.991 0,0 -0.057,-0.016 0.057,0.016 m 38.635,-26.481 1.212,1.076 c -0.451,0.18 -0.98,0.738 -2.068,2.187 -2.06,2.735 -2.098,2.788 -5.421,0.99 1.82,-3.2 1.82,-3.2 6.277,-4.253 m -6.979,4.439 0.702,-0.186 c -0.116,0.939 -0.48,3.757 -3.146,3.781 -1.608,0.032 -2.552,0.12 -4.066,0.35 0.474,-0.702 1.745,-2.563 6.51,-3.945 m 17.272,-12.591 2.785,2.575 -2.199,3.409 -3.649,2.008 -0.595,-0.143 c -2.188,-0.648 -2.522,-0.844 -1.571,-4.492 2.377,0.223 2.377,0.223 5.229,-3.357"
             style="fill:none;stroke:#24221d;stroke-opacity:1;stroke-width:1.5;stroke-linecap:butt;stroke-linejoin:miter;stroke-miterlimit:10;stroke-dasharray:none"
             id="path112" /></g></g></g><g
       id="g114"><g
         id="g116"
         clip-path="url(#clipPath118)"><g
           id="g122"><g
             id="g124"><path
               d="m 293.14,359.525 c 9.764,-3.919 9.764,-3.919 10.901,-4.669 l 0,0 0.732,0.203 c 2.049,-0.977 3.349,-1.625 6.393,-3.452 l 0,0 c -2.698,0.976 -5.356,2.096 -8.113,2.952 l 0,0 c 3.15,-1.356 3.15,-1.356 4.339,-2.212 l 0,0 c -0.331,-0.116 -0.756,-0.252 -1.078,-0.357 l 0,0 c 0.896,-0.394 2.069,-0.922 2.962,-1.311 l 0,0 c 1.946,-1.919 3.498,-4.181 5.414,-6.124 l 0,0 c 1.366,-1.453 3.203,-3.403 4.477,-4.961 l 0,0 c -1.811,0.654 -4.222,1.548 -6.029,2.19 l 0,0 -0.973,0.85 c 1.002,-0.076 2.344,-0.19 3.34,-0.273 l 0,0 -2.25,1.986 -2.701,1.092 c -1.699,-1.059 -1.913,-0.989 -7.181,0.889 l 0,0 c -0.659,-0.608 -1.447,-1.185 -2.393,-1.751 l 0,0 c 4.699,-5.465 5.2,-6.041 7.614,-10.496 l 0,0 c -0.672,-3.09 -0.672,-3.09 5.135,-7.809 l 0,0 c 0.285,0.204 0.656,0.478 0.95,0.691 l 0,0 c -0.481,1.658 -0.481,1.658 -2.25,3.99 l 0,0 0.31,-0.247 0.554,-0.549 0.551,-0.528 0.518,-0.548 0.525,-0.525 0.515,-0.534 0.486,-0.52 0.508,-0.521 1.028,0 c 1.005,2.826 1.005,2.826 -5.654,11.539 l 0,0 1.91,-0.137 3.249,-4.533 c 0.767,-0.115 1.825,-0.115 2.56,0.066 l 0,0 c 0.917,0.653 1.128,0.852 1.321,1.037 l 0,0 c 5.777,-11.156 5.777,-11.156 5.825,-13.784 l 0,0 c -1.357,0.412 -1.357,0.412 -3.076,1.273 l 0,0 c -0.176,-0.647 -0.425,-1.515 -0.636,-2.151 l 0,0 c -1.31,0.467 -1.623,0.581 -4.851,4.154 l 0,0 c -0.159,-1.064 -0.159,-1.064 2.894,-4.752 l 0,0 c -0.231,-0.603 -0.779,-1.322 -1.278,-1.728 l 0,0 c 0.006,-1.125 0.027,-2.619 0.032,-3.726 l 0,0 c -4.01,1.449 -4.01,1.449 -6.225,2.716 l 0,0 c -0.548,0.449 -0.683,0.636 -0.823,0.828 l 0,0 -0.393,0.566 -0.398,0.587 -0.407,0.565 -0.42,0.538 -0.409,0.571 -0.408,0.559 -0.41,0.549 c -0.586,-0.369 -1.318,-0.954 -1.802,-1.448 l 0,0 c 0.214,-0.863 0.557,-2.328 5.669,-5.641 l 0,0 c 0.051,-1.307 0.117,-3.029 0.15,-4.331 l 0,0 c 0.498,-0.482 1.142,-1.125 1.623,-1.634 l 0,0 -0.22,-0.796 c 1.782,-0.214 1.782,-0.214 6.982,-8.165 l 0,0 c -0.791,-0.443 -1.591,-0.898 -9.994,-1.398 l 0,0 c 1.482,-3.135 3.3,-6.092 4.802,-9.237 l 0,0 -0.791,-0.75 0.167,-0.446 0.156,-0.439 0.149,-0.422 0.155,-0.428 0.138,-0.406 0.144,-0.4 0.145,-0.395 0.133,-0.384 c 7.602,2.656 7.907,2.772 11.777,4.466 l 0,0 c -0.768,1.784 -1.556,3.544 -2.39,5.284 l 0,0 c 2.636,2.414 1.203,6.415 3.483,8.978 l 0,0 c 0.852,0.329 1.649,0.663 2.431,1.02 l 0,0 c 5.839,-5.977 6.071,-6.212 9.25,-5.086 l 0,0 c 0.981,-1.499 0.981,-1.499 2.243,-3.124 l 0,0 c -0.972,1.872 -1.608,3.106 -5.445,8.38 l 0,0 c -0.13,-0.274 -0.303,-0.669 -0.443,-0.949 l 0,0 c -1.131,0.335 -1.131,0.335 -2.915,1.782 l 0,0 c 0.231,0.286 0.553,0.643 0.782,0.917 l 0,0 c 2.273,-0.323 2.273,-0.323 13.737,-9.592 l 0,0 c 0.542,3.815 -3.155,5.725 -3.993,8.923 l 0,0 c 1.096,1.579 0.996,1.762 0.522,2.781 l 0,0 c -1.676,2.338 -2.839,4.967 -4.287,7.437 l 0,0 c 0.637,0.055 1.503,0.055 2.145,-0.033 l 0,0 c 0.023,0.322 0.053,0.757 0.077,1.075 l 0,0 c -0.396,0.346 -0.9,0.823 -1.296,1.168 l 0,0 0.045,0.098 0.061,0.111 0.038,0.105 0.055,0.103 0.05,0.122 0.041,0.114 0.044,0.116 0.062,0.126 c 4.62,-2.869 4.62,-2.869 7.209,-6.821 l 0,0 c -1.423,0.62 -1.622,0.84 -2.495,1.916 l 0,0 c -0.164,-0.126 -0.259,-0.423 -0.364,-0.73 l 0,0 c -0.539,-3.387 -0.556,-3.514 -0.348,-8.379 l 0,0 c 0.542,-0.812 1.06,-1.63 1.567,-2.452 l 0,0 c 1.14,-1.307 1.14,-1.307 3.879,-3.502 l 0,0 c -0.173,1.558 -0.386,3.643 -0.554,5.208 l 0,0 c 0.276,0.147 0.665,0.35 0.95,0.499 l 0,0 c 0.717,-1.404 1.681,-3.314 2.387,-4.731 l 0,0 c 3.024,-5.008 3.402,-5.657 3.663,-8.67 l 0,0 -0.476,-0.399 c -0.037,-0.06 -0.037,-0.06 -6.958,-2.892 l 0,0 c 0.106,-1.57 0,-2.172 -0.81,-4.808 l 0,0 c -3.484,0.445 -9.889,7.244 -9.956,7.31 l 0,0 c -2.76,-1.586 -8.52,-4.879 -16.846,-7.16 l 0,0 0.715,-0.732 c -0.035,-0.328 -0.049,-0.762 -0.073,-1.103 l 0,0 -0.322,-0.075 -0.34,-0.082 -0.337,-0.088 -0.354,-0.095 -0.358,-0.087 -0.375,-0.094 -0.375,-0.104 -0.384,-0.082 c -3.468,-8.917 -6.442,-16.588 -16.09,-30.338 l 0,0 3.062,-2.573 c 1.734,-12.439 1.734,-12.439 -0.138,-16.527 l 0,0 c 15.563,-13.903 15.563,-13.903 18.97,-14.905 l 0,0 c 0.656,1.026 1.518,2.401 2.177,3.438 l 0,0 c 4.84,1.131 9.298,2.359 13.35,3.682 l 0,0 c 12.566,3.973 13.047,4.136 10.887,-22.618 l 0,0 c -0.75,-2.645 -1.597,-5.236 -2.517,-7.769 l 0,0 c -6.354,-10.17 -9.966,-21.844 -17.367,-31.427 l 0,0 c 1.726,1.217 4.357,3.08 11.464,11.827 l 0,0 c 6.89,9.295 7.307,9.857 10.867,16.109 l 0,0 c 5.452,10.656 5.671,11.086 8.092,17.666 l 0,0 c 3.693,11.629 3.84,12.087 5.129,18.989 l 0,0 c 1.717,12.093 1.848,13.08 1.948,21.251 l 0,0 c -0.208,5.157 -0.642,12.042 -1.209,17.195 l 0,0 -0.077,0.407 c -0.005,0.119 -3.457,13.332 -5.674,18.047 l 0,0 c 0.084,0.28 0.126,0.553 0.187,0.838 l 0,0 c 1.156,-1.781 2.012,-3.794 2.669,-5.778 l 0,0 c -0.783,2.939 -1.626,5.919 -2.415,8.417 l 0,0 c -4.394,11.211 -4.563,11.656 -7.851,17.774 l 0,0 c -1.545,2.599 -2.712,4.562 -3.665,6.136 l 0,0 c -0.93,1.456 -1.893,2.888 -2.889,4.301 l 0,0 c -0.491,0.593 -1.66,1.981 -1.975,1.963 l 0,0 0.007,-0.135 c -1.855,2.436 -1.855,2.436 -4.687,6.984 l 0,0 c 1.552,-1.833 2.07,-2.578 2.393,-3.099 l 0,0 -0.089,0.169 c 0.171,-0.121 0.182,-0.121 1.404,-1.728 l 0,0 1.319,-1.624 c 1.226,-1.836 2.732,-4.05 4.118,-6.173 l 0,0 c -2.49,4.088 -3.502,5.446 -6.565,9.438 l 0,0 c -7.374,8.789 -7.816,9.317 -13.274,14.436 l 0,0 c -6.685,5.751 -11.968,10.289 -22.017,16.089 l 0,0 c -5.815,3.29 -12.026,5.953 -18.562,7.901 l 0,0 0.006,-0.005 z m 26.68,-46.504 0.106,-2.453 -2.956,-1.746 c 0.559,1.658 1.91,2.805 2.85,4.199 m -2.338,19.544 c 0.141,-0.722 0.133,-1.47 0.296,-2.2 l 0,0 0.229,-0.224 c 1.687,-1.752 1.96,-2.437 2.054,-2.645 l 0,0 c -0.088,0.225 -0.882,2.397 -2.505,5.037 l 0,0 -0.112,0.198 0.038,-0.166 z m -8.956,-16.653 c -1.013,-0.422 -1.781,-2.051 -2.323,-3.249 l 0,0 0.167,-0.312 0.165,-0.29 0.172,-0.307 0.161,-0.309 0.167,-0.301 0.161,-0.296 0.17,-0.296 0.161,-0.303 0.164,-0.296 0.158,-0.302 0.159,-0.318 0.164,-0.302 0.163,-0.302 0.165,-0.306 0.152,-0.308 0.164,-0.301 c 0.126,2.15 0.68,3.137 1.99,3.555 l 0,0 -2.171,4.588 -0.109,-0.045 z m 45.425,-4.904 c 0.624,-0.975 1.233,-1.962 1.828,-2.96 l 0,0 -0.146,0.319 0.05,-0.071 c -0.629,1.041 -1.361,2.191 -2.131,3.37 l 0,0 c 0.129,-0.212 0.262,-0.431 0.399,-0.658 m 15.642,-39.053 c -0.392,1.87 -0.899,4.276 -1.711,6.726 l 0,0 c 0.629,-2.359 1.219,-4.691 1.711,-6.726"
               style="fill:url(#radialGradient126);stroke:none"
               id="path132" /></g></g></g></g><g
       id="g134"><g
         id="g136"
         clip-path="url(#clipPath138)"><g
           id="g142"
           transform="translate(311.6963,351.6289)"><path
             d="m 0,0 c -5.815,3.291 -12.026,5.953 -18.562,7.901 l 0.005,-0.005 C -8.792,3.978 -8.792,3.978 -7.655,3.227 l 0.732,0.203 c 2.048,-0.977 3.349,-1.625 6.393,-3.451 -2.699,0.975 -5.356,2.095 -8.113,2.952 3.15,-1.357 3.15,-1.357 4.339,-2.212 -0.331,-0.116 -0.756,-0.252 -1.078,-0.358 0.897,-0.394 2.069,-0.922 2.962,-1.311 1.945,-1.919 3.498,-4.181 5.414,-6.124 1.365,-1.453 3.202,-3.403 4.477,-4.96 -1.811,0.653 -4.222,1.548 -6.03,2.189 l -0.972,0.851 c 1.002,-0.077 2.344,-0.192 3.34,-0.274 l -2.25,1.987 -2.702,1.091 c -1.699,-1.059 -1.913,-0.989 -7.18,0.889 -0.659,-0.608 -1.448,-1.185 -2.394,-1.751 4.699,-5.465 5.2,-6.041 7.614,-10.496 -0.67,-3.09 -0.67,-3.09 5.136,-7.808 0.284,0.203 0.656,0.477 0.949,0.69 -0.48,1.658 -0.48,1.658 -2.25,3.99 l 0.311,-0.247 0.554,-0.549 0.55,-0.527 0.519,-0.549 0.524,-0.525 0.516,-0.533 0.486,-0.521 0.507,-0.521 1.029,0 c 1.004,2.826 1.004,2.826 -5.655,11.539 l 1.91,-0.137 3.249,-4.533 c 0.768,-0.115 1.826,-0.115 2.561,0.066 0.917,0.652 1.128,0.852 1.321,1.037 5.778,-11.156 5.778,-11.156 5.824,-13.784 -1.356,0.412 -1.356,0.412 -3.076,1.273 -0.175,-0.647 -0.424,-1.514 -0.635,-2.151 -1.31,0.467 -1.623,0.581 -4.852,4.154 -0.158,-1.064 -0.158,-1.064 2.895,-4.753 -0.232,-0.602 -0.78,-1.321 -1.278,-1.727 0.006,-1.125 0.027,-2.618 0.032,-3.727 -4.01,1.45 -4.01,1.45 -6.225,2.717 -0.548,0.449 -0.683,0.636 -0.823,0.828 l -0.393,0.566 -0.398,0.587 -0.408,0.565 -0.419,0.538 -0.41,0.57 -0.407,0.56 -0.41,0.549 c -0.586,-0.368 -1.319,-0.954 -1.802,-1.448 0.214,-0.863 0.557,-2.328 5.669,-5.641 0.05,-1.307 0.117,-3.029 0.149,-4.33 0.499,-0.483 1.143,-1.125 1.624,-1.635 l -0.22,-0.796 c 1.781,-0.214 1.781,-0.214 6.981,-8.165 -0.791,-0.443 -1.591,-0.898 -9.993,-1.398 1.482,-3.135 3.299,-6.092 4.802,-9.237 l -0.791,-0.751 0.167,-0.445 0.155,-0.439 0.149,-0.422 0.156,-0.428 0.137,-0.405 0.144,-0.401 0.146,-0.395 0.132,-0.384 c 7.603,2.655 7.908,2.772 11.778,4.466 -0.768,1.784 -1.556,3.545 -2.391,5.284 2.637,2.414 1.204,6.415 3.483,8.978 0.853,0.329 1.65,0.663 2.432,1.02 5.839,-5.976 6.07,-6.213 9.249,-5.086 0.982,-1.499 0.982,-1.499 2.244,-3.124 -0.972,1.872 -1.608,3.107 -5.446,8.38 -0.129,-0.274 -0.302,-0.669 -0.442,-0.949 -1.131,0.335 -1.131,0.335 -2.915,1.782 0.231,0.286 0.553,0.644 0.782,0.917 2.273,-0.323 2.273,-0.323 13.737,-9.592 0.542,3.815 -3.155,5.725 -3.993,8.923 1.096,1.579 0.996,1.762 0.521,2.781 -1.675,2.338 -2.838,4.967 -4.286,7.437 0.636,0.055 1.503,0.055 2.145,-0.033 0.023,0.322 0.053,0.757 0.076,1.075 -0.396,0.346 -0.899,0.823 -1.295,1.169 l 0.044,0.098 0.062,0.11 0.038,0.104 0.055,0.104 0.05,0.123 0.041,0.113 0.044,0.116 0.062,0.126 c 4.62,-2.869 4.62,-2.869 7.21,-6.821 -1.424,0.62 -1.624,0.84 -2.497,1.916 -0.164,-0.126 -0.257,-0.423 -0.363,-0.729 -0.539,-3.387 -0.557,-3.514 -0.348,-8.38 0.541,-0.812 1.06,-1.63 1.567,-2.452 1.14,-1.307 1.14,-1.307 3.879,-3.502 -0.173,1.558 -0.387,3.643 -0.554,5.208 0.275,0.147 0.665,0.35 0.949,0.499 0.718,-1.405 1.682,-3.314 2.388,-4.731 3.023,-5.009 3.401,-5.657 3.662,-8.67 l -0.475,-0.399 c -0.038,-0.061 -0.038,-0.061 -6.958,-2.892 0.106,-1.57 0,-2.173 -0.811,-4.807 -3.483,0.444 -9.888,7.243 -9.955,7.309 -2.76,-1.586 -8.52,-4.879 -16.846,-7.16 l 0.715,-0.731 c -0.035,-0.329 -0.05,-0.763 -0.073,-1.104 l -0.322,-0.075 -0.34,-0.082 -0.337,-0.088 -0.355,-0.095 -0.357,-0.087 -0.375,-0.093 -0.375,-0.105 -0.384,-0.082 C 6.987,-79.379 4.014,-87.05 -5.634,-100.8 l 3.062,-2.573 c 1.734,-12.439 1.734,-12.439 -0.138,-16.526 15.563,-13.904 15.563,-13.904 18.97,-14.907 0.656,1.027 1.517,2.402 2.177,3.44 4.839,1.13 9.298,2.358 13.35,3.681 12.566,3.973 13.046,4.136 10.887,-22.618 -0.75,-2.644 -1.597,-5.236 -2.517,-7.769 -6.354,-10.17 -9.967,-21.844 -17.367,-31.426 1.726,1.217 4.356,3.079 11.464,11.826 6.891,9.295 7.307,9.858 10.866,16.11 5.452,10.655 5.672,11.084 8.092,17.665 3.694,11.629 3.841,12.086 5.13,18.989 1.717,12.094 1.848,13.081 1.948,21.251 -0.208,5.157 -0.642,12.043 -1.21,17.195 l -0.076,0.407 c -0.006,0.118 -3.457,13.332 -5.675,18.047 0.085,0.28 0.126,0.553 0.188,0.838 2.584,-3.982 3.671,-9.12 4.379,-12.504 -1.104,4.57 -2.704,10.64 -4.125,15.144 -4.394,11.211 -4.564,11.655 -7.851,17.773 -6.07,10.211 -6.308,10.601 -10.629,16.232 -7.374,8.79 -7.816,9.317 -13.274,14.436 C 15.331,-10.338 10.049,-5.8 0,0 m 8.229,-41.061 -2.956,-1.746 c 0.56,1.659 1.911,2.805 2.851,4.199 l 0.105,-2.453 m 35.757,-2.272 -0.049,0.071 0.146,-0.318 c -1.482,2.486 -3.053,4.9 -4.717,7.26 -0.492,0.592 -1.661,1.981 -1.974,1.964 l 0.005,-0.136 c -1.854,2.436 -1.854,2.436 -4.687,6.984 1.553,-1.833 2.071,-2.578 2.394,-3.099 l -0.088,0.17 c 0.17,-0.122 0.181,-0.122 1.403,-1.729 l 1.318,-1.624 c 1.908,-2.855 4.489,-6.624 6.249,-9.543 m -38.127,24.237 -0.111,0.198 0.038,-0.165 c 0.141,-0.723 0.132,-1.471 0.296,-2.201 l 0.229,-0.224 c 1.687,-1.751 1.96,-2.437 2.053,-2.645 -0.088,0.225 -0.882,2.398 -2.505,5.037 m -6.75,-21.164 -2.171,4.588 -0.108,-0.045 c -1.014,-0.422 -1.781,-2.052 -2.323,-3.249 l 0.167,-0.311 0.164,-0.291 0.173,-0.307 0.161,-0.309 0.167,-0.3 0.161,-0.296 0.17,-0.297 0.161,-0.303 0.164,-0.296 0.158,-0.302 0.159,-0.318 0.164,-0.302 0.164,-0.302 0.164,-0.306 0.152,-0.308 0.164,-0.301 c 0.126,2.15 0.68,3.137 1.989,3.555"
             style="fill:none;stroke:#24221d;stroke-opacity:1;stroke-width:1.5;stroke-linecap:butt;stroke-linejoin:miter;stroke-miterlimit:10;stroke-dasharray:none"
             id="path144" /></g></g></g><g
       id="g146"><g
         id="g148"
         clip-path="url(#clipPath150)"><g
           id="g154"
           transform="translate(45.0322,89.2607)"><path
             d="m 0,0 c 10.704,18 22.119,36.434 22.119,36.434 l 12.414,15.725 30.344,23.998 27.588,18.484 9.103,4.965 0.551,8.552 19.588,6.07 c 5.793,1.378 7.172,-1.381 7.172,-1.381 l 4.414,-12.965 c 0,0 32.001,8.828 34.207,9.381 2.207,0.55 7.725,3.861 9.104,-1.931 1.378,-5.795 -4.414,-7.726 -4.414,-7.726 l -36.966,-9.656 8.829,-28.138 25.931,6.07 c 0,0 7.721,2.759 11.586,4.139 3.862,1.378 5.241,-0.553 6.346,-4.691 1.103,-4.138 -4.691,-6.069 -4.691,-6.069 l -37.243,-10.207 0.551,-2.485 c 0,0 3.863,-9.927 2.208,-12.685 -1.655,-2.76 -25.932,-6.621 -25.932,-6.621 l -6.067,7.171 c 0,0 -20.967,2.759 -41.381,3.31 -20.414,0.552 -37.517,-3.86 -37.517,-3.86 L 29.567,23.769 c 0,0 -7.463,-12.112 -14.462,-24.249 L 0,0 z"
             style="fill:#9f251f;fill-opacity:1;fill-rule:evenodd;stroke:none"
             id="path156" /></g><g
           id="g158"
           transform="translate(45.0322,89.2607)"><path
             d="m 0,0 c 10.704,18 22.119,36.434 22.119,36.434 l 12.414,15.725 30.344,23.998 27.588,18.484 9.103,4.965 0.551,8.552 19.588,6.07 c 5.793,1.378 7.172,-1.381 7.172,-1.381 l 4.414,-12.965 c 0,0 32.001,8.828 34.207,9.381 2.207,0.55 7.725,3.861 9.104,-1.931 1.378,-5.795 -4.414,-7.726 -4.414,-7.726 l -36.966,-9.656 8.829,-28.138 25.931,6.07 c 0,0 7.721,2.759 11.586,4.139 3.862,1.378 5.241,-0.553 6.346,-4.691 1.103,-4.138 -4.691,-6.069 -4.691,-6.069 l -37.243,-10.207 0.551,-2.485 c 0,0 3.863,-9.927 2.208,-12.685 -1.655,-2.76 -25.932,-6.621 -25.932,-6.621 l -6.067,7.171 c 0,0 -20.967,2.759 -41.381,3.31 -20.414,0.552 -37.517,-3.86 -37.517,-3.86 L 29.567,23.769 c 0,0 -7.463,-12.112 -14.462,-24.249 L 0,0 z"
             style="fill:none;stroke:#24221d;stroke-opacity:1;stroke-width:1.5;stroke-linecap:butt;stroke-linejoin:miter;stroke-miterlimit:10;stroke-dasharray:none"
             id="path160" /></g><g
           id="g162"
           transform="translate(451.5146,89.3984)"><path
             d="m 0,0 -16.824,30.641 c 0,0 -1.38,6.757 -6.068,8.415 -4.69,1.653 -17.241,0.413 -17.241,0.413 l -18.899,-0.413 -10.758,-1.105 -16.137,-1.793 -13.38,-0.553 c 0,0 0,1.381 -1.93,-2.482 -1.934,-3.864 -5.656,-3.311 -7.726,-3.584 -2.068,-0.277 -14.897,2.895 -14.897,2.895 -1.38,0.275 -5.792,6.068 -5.792,6.068 2.481,20.967 17.379,63.174 18.482,69.243 1.103,6.069 4.964,5.241 4.964,5.241 0,0 20.417,-3.861 22.623,-7.172 2.206,-3.31 1.38,-7.449 1.38,-7.449 L -50.756,76.02 c 0,0 32.001,-24.553 36.141,-27.588 4.139,-3.036 13.239,-21.241 13.239,-21.241 L 12.842,0.694 0,0 z"
             style="fill:#9f251f;fill-opacity:1;fill-rule:evenodd;stroke:none"
             id="path164" /></g><g
           id="g166"
           transform="translate(451.5146,89.3984)"><path
             d="m 0,0 -16.824,30.641 c 0,0 -1.38,6.757 -6.068,8.415 -4.69,1.653 -17.241,0.413 -17.241,0.413 l -18.899,-0.413 -10.758,-1.105 -16.137,-1.793 -13.38,-0.553 c 0,0 0,1.381 -1.93,-2.482 -1.934,-3.864 -5.656,-3.311 -7.726,-3.584 -2.068,-0.277 -14.897,2.895 -14.897,2.895 -1.38,0.275 -5.792,6.068 -5.792,6.068 2.481,20.967 17.379,63.174 18.482,69.243 1.103,6.069 4.964,5.241 4.964,5.241 0,0 20.417,-3.861 22.623,-7.172 2.206,-3.31 1.38,-7.449 1.38,-7.449 L -50.756,76.02 c 0,0 32.001,-24.553 36.141,-27.588 4.139,-3.036 13.239,-21.241 13.239,-21.241 L 12.842,0.694 0,0 z"
             style="fill:none;stroke:#24221d;stroke-opacity:1;stroke-width:1.5;stroke-linecap:butt;stroke-linejoin:miter;stroke-miterlimit:10;stroke-dasharray:none"
             id="path168" /></g><g
           id="g170"
           transform="translate(143.7861,213.1279)"><path
             d="m 0,0 -6.621,0 c 0,0 -1.621,-1.448 -1.414,-2.689 0.207,-1.242 -0.621,-4.759 -2.277,-7.345 0,0 -8.068,-14.482 -13.034,-17.483 -4.966,-2.999 8.172,3.001 13.656,-7.241 5.483,-10.242 -8.794,-18.621 -12.206,-19.139 -3.416,-0.518 -15,2.794 -15,2.794 0,0 -3.311,0 -1.347,-5.276 1.966,-5.276 7.655,-18.829 7.553,-19.863 -0.103,-1.032 4.551,-16.447 -8.794,-21.932 -13.344,-5.481 -24.517,2.485 -24.517,2.485 0,0 -12.932,14.172 -14.484,28.137 -1.552,13.965 12.931,27.518 14.587,28.863 1.655,1.344 11.689,7.552 17.482,17.586 5.794,10.035 11.588,26.172 26.691,32.069 15.104,5.896 15.104,10.863 15.104,10.863 L 0,0 z"
             style="fill:#e8dfab;fill-opacity:1;fill-rule:evenodd;stroke:none"
             id="path172" /></g><g
           id="g174"
           transform="translate(143.7861,213.1279)"><path
             d="m 0,0 -6.621,0 c 0,0 -1.621,-1.448 -1.414,-2.689 0.207,-1.242 -0.621,-4.759 -2.277,-7.345 0,0 -8.068,-14.482 -13.034,-17.483 -4.966,-2.999 8.172,3.001 13.656,-7.241 5.483,-10.242 -8.794,-18.621 -12.206,-19.139 -3.416,-0.518 -15,2.794 -15,2.794 0,0 -3.311,0 -1.347,-5.276 1.966,-5.276 7.655,-18.829 7.553,-19.863 -0.103,-1.032 4.551,-16.447 -8.794,-21.932 -13.344,-5.481 -24.517,2.485 -24.517,2.485 0,0 -12.932,14.172 -14.484,28.137 -1.552,13.965 12.931,27.518 14.587,28.863 1.655,1.344 11.689,7.552 17.482,17.586 5.794,10.035 11.588,26.172 26.691,32.069 15.104,5.896 15.104,10.863 15.104,10.863 L 0,0 z"
             style="fill:none;stroke:#24221d;stroke-opacity:1;stroke-width:1.5;stroke-linecap:butt;stroke-linejoin:miter;stroke-miterlimit:10;stroke-dasharray:none"
             id="path176" /></g><g
           id="g178"
           transform="translate(360.8799,213.1279)"><path
             d="m 0,0 6.621,0 c 0,0 1.62,-1.448 1.412,-2.689 -0.208,-1.242 0.621,-4.759 2.277,-7.345 0,0 8.068,-14.482 13.034,-17.483 4.966,-2.999 -8.174,3.001 -13.656,-7.241 C 4.204,-45 18.48,-53.379 21.896,-53.897 c 3.414,-0.518 15,2.794 15,2.794 0,0 3.308,0 1.345,-5.276 -1.966,-5.276 -7.655,-18.829 -7.553,-19.863 0.103,-1.032 -4.549,-16.447 8.792,-21.932 13.345,-5.481 24.519,2.485 24.519,2.485 0,0 12.932,14.172 14.484,28.137 1.553,13.965 -12.934,27.518 -14.589,28.863 -1.653,1.344 -11.687,7.552 -17.482,17.586 C 40.62,-11.068 34.825,5.069 19.723,10.966 4.62,16.862 4.62,21.829 4.62,21.829 L 0,0 z"
             style="fill:#e8dfab;fill-opacity:1;fill-rule:evenodd;stroke:none"
             id="path180" /></g><g
           id="g182"
           transform="translate(360.8799,213.1279)"><path
             d="m 0,0 6.621,0 c 0,0 1.62,-1.448 1.412,-2.689 -0.208,-1.242 0.621,-4.759 2.277,-7.345 0,0 8.068,-14.482 13.034,-17.483 4.966,-2.999 -8.174,3.001 -13.656,-7.241 C 4.204,-45 18.48,-53.379 21.896,-53.897 c 3.414,-0.518 15,2.794 15,2.794 0,0 3.308,0 1.345,-5.276 -1.966,-5.276 -7.655,-18.829 -7.553,-19.863 0.103,-1.032 -4.549,-16.447 8.792,-21.932 13.345,-5.481 24.519,2.485 24.519,2.485 0,0 12.932,14.172 14.484,28.137 1.553,13.965 -12.934,27.518 -14.589,28.863 -1.653,1.344 -11.687,7.552 -17.482,17.586 C 40.62,-11.068 34.825,5.069 19.723,10.966 4.62,16.862 4.62,21.829 4.62,21.829 L 0,0 z"
             style="fill:none;stroke:#24221d;stroke-opacity:1;stroke-width:1.5;stroke-linecap:butt;stroke-linejoin:miter;stroke-miterlimit:10;stroke-dasharray:none"
             id="path184" /></g></g></g><g
       id="g186"><g
         id="g188"
         clip-path="url(#clipPath190)"><g
           id="g194"><g
             id="g196"><path
               d="m 132.385,300.482 c -10.968,-4.099 -17.352,-13.434 -18.487,-23.315 l 0,0 c -1.268,-11.001 1.353,-34.181 12.862,-47.43 l 0,0 c 4.904,-5.647 10.202,-9.592 16.078,-12.059 l 0,0 c 7.588,-3.188 15.275,-4.02 15.275,-4.02 l 0,0 11.255,0 c 0,0 22.8,0.854 37.785,14.471 l 0,0 c 13.072,11.878 18.601,35.705 18.49,48.234 l 0,0 c -0.048,5.523 -5.467,17.052 -16.079,21.707 l 0,0 c -9.314,4.086 -27.767,6.141 -44.835,6.141 l 0,0 c -13.259,0 -25.682,-1.239 -32.344,-3.729"
               style="fill:url(#radialGradient198);stroke:none"
               id="path204" /></g></g></g></g><g
       id="g206"><g
         id="g208"
         clip-path="url(#clipPath210)"><g
           id="g214"><g
             id="g216"><path
               d="m 294.774,298.07 c -10.611,-4.655 -16.028,-16.184 -16.077,-21.707 l 0,0 c -0.112,-12.529 5.416,-36.356 18.488,-48.234 l 0,0 c 14.986,-13.617 37.785,-14.471 37.785,-14.471 l 0,0 11.255,0 c 0,0 7.688,0.832 15.276,4.02 l 0,0 c 5.877,2.467 11.176,6.412 16.078,12.059 l 0,0 c 11.508,13.249 14.13,36.429 12.864,47.43 l 0,0 c -1.136,9.881 -7.523,19.216 -18.492,23.315 l 0,0 c -6.66,2.49 -19.082,3.729 -32.341,3.729 l 0,0 c -17.068,0 -35.521,-2.055 -44.836,-6.141"
               style="fill:url(#radialGradient218);stroke:none"
               id="path224" /></g></g></g></g><g
       id="g226"><g
         id="g228"
         clip-path="url(#clipPath230)"><g
           id="g234"><g
             id="g236" /><g
             id="g242"><g
               clip-path="url(#clipPath238)"
               opacity="0.300003"
               id="g244"><text
   transform="matrix(1,0,0,-1,127.6076,293.2227)"
   id="text246"><tspan
     style="fill:#9f251f;fill-opacity:1;fill-rule:nonzero;stroke:none;font-family:Myriad Pro;font-variant:normal;font-weight:normal;font-stretch:normal;font-size:6;writing-mode:lr;-inkscape-font-specification:MyriadPro-Regular"
     x="0 3.576 6.012 9.426 12.756"
     y="0"
     sodipodi:role="line"
     id="tspan248">&lt;?php</tspan><tspan
     style="fill:#231f20;fill-opacity:1;fill-rule:nonzero;stroke:none;font-family:Myriad Pro;font-variant:normal;font-weight:normal;font-stretch:normal;font-size:6;writing-mode:lr;-inkscape-font-specification:MyriadPro-Regular"
     x="-8.904 -5.826 -2.496 0.798 3.174 5.16 8.736"
     y="7.2"
     sodipodi:role="line"
     id="tspan250">$host='</tspan><tspan
     style="fill:#3ebb6c;fill-opacity:1;fill-rule:nonzero;stroke:none;font-family:Myriad Pro;font-variant:normal;font-weight:normal;font-stretch:normal;font-size:6;writing-mode:lr;-inkscape-font-specification:MyriadPro-Regular"
     x="9.834 14.6934 17.6994 18.9714 22.3014 25.5954 30.5994"
     y="7.2"
     sodipodi:role="line"
     id="tspan252">Me home</tspan><tspan
     style="fill:#231f20;fill-opacity:1;fill-rule:nonzero;stroke:none;font-family:Myriad Pro;font-variant:normal;font-weight:normal;font-stretch:normal;font-size:6;writing-mode:lr;-inkscape-font-specification:MyriadPro-Regular"
     x="33.6054 34.7334"
     y="7.2"
     sodipodi:role="line"
     id="tspan254">';</tspan><tspan
     style="fill:#231f20;fill-opacity:1;fill-rule:nonzero;stroke:none;font-family:Myriad Pro;font-variant:normal;font-weight:normal;font-stretch:normal;font-size:6;writing-mode:lr;-inkscape-font-specification:MyriadPro-Regular"
     x="-8.904 -5.826 -2.52 -0.144 2.862 4.824 8.4"
     y="14.4"
     sodipodi:role="line"
     id="tspan256">$user='</tspan><tspan
     style="fill:#3ebb6c;fill-opacity:1;fill-rule:nonzero;stroke:none;font-family:Myriad Pro;font-variant:normal;font-weight:normal;font-stretch:normal;font-size:6;writing-mode:lr;-inkscape-font-specification:MyriadPro-Regular"
     x="9.528 13.476 16.482 19.296"
     y="14.4"
     sodipodi:role="line"
     id="tspan258">Neko</tspan><tspan
     style="fill:#231f20;fill-opacity:1;fill-rule:nonzero;stroke:none;font-family:Myriad Pro;font-variant:normal;font-weight:normal;font-stretch:normal;font-size:6;writing-mode:lr;-inkscape-font-specification:MyriadPro-Regular"
     x="22.524 23.652"
     y="14.4"
     sodipodi:role="line"
     id="tspan260">';</tspan><tspan
     style="fill:#231f20;fill-opacity:1;fill-rule:nonzero;stroke:none;font-family:Myriad Pro;font-variant:normal;font-weight:normal;font-stretch:normal;font-size:6;writing-mode:lr;-inkscape-font-specification:MyriadPro-Regular"
     x="-8.904 -5.826 -2.412 0.48 2.856 5.232 8.808 9.936"
     y="21.6"
     sodipodi:role="line"
     id="tspan262">$pass=''</tspan><tspan
     style="fill:#3ebb6c;fill-opacity:1;fill-rule:nonzero;stroke:none;font-family:Myriad Pro;font-variant:normal;font-weight:normal;font-stretch:normal;font-size:6;writing-mode:lr;-inkscape-font-specification:MyriadPro-Regular"
     x="11.082 13.872 17.166 20.472 21.744 24.12 27.45 30.342 31.758 33.174 34.446 37.776 41.07 43.056 44.328 47.742 50.634 53.01"
     y="21.6"
     sodipodi:role="line"
     id="tspan264">You shall not pass</tspan><tspan
     style="fill:#231f20;fill-opacity:1;fill-rule:nonzero;stroke:none;font-family:Myriad Pro;font-variant:normal;font-weight:normal;font-stretch:normal;font-size:6;writing-mode:lr;-inkscape-font-specification:MyriadPro-Regular"
     x="55.386"
     y="21.6"
     id="tspan266">;</tspan><tspan
     style="fill:#231f20;fill-opacity:1;fill-rule:nonzero;stroke:none;font-family:Myriad Pro;font-variant:normal;font-weight:normal;font-stretch:normal;font-size:6;writing-mode:lr;-inkscape-font-specification:MyriadPro-Regular"
     x="-8.904 -5.826 -2.442 0.972 4.548"
     y="28.8"
     sodipodi:role="line"
     id="tspan268">$db='</tspan><tspan
     style="fill:#3ebb6c;fill-opacity:1;fill-rule:nonzero;stroke:none;font-family:Myriad Pro;font-variant:normal;font-weight:normal;font-stretch:normal;font-size:6;writing-mode:lr;-inkscape-font-specification:MyriadPro-Regular"
     x="5.676 8.928 10.83 14.124 17.376 20.202 21.474 24.366 27.018 29.6694 32.6754 35.0514"
     y="28.8"
     sodipodi:role="line"
     id="tspan270">Brony access</tspan><tspan
     style="fill:#231f20;fill-opacity:1;fill-rule:nonzero;stroke:none;font-family:Myriad Pro;font-variant:normal;font-weight:normal;font-stretch:normal;font-size:6;writing-mode:lr;-inkscape-font-specification:MyriadPro-Regular"
     x="37.4274 38.5554"
     y="28.8"
     sodipodi:role="line"
     id="tspan272">';</tspan><tspan
     style="fill:#231f20;fill-opacity:1;fill-rule:nonzero;stroke:none;font-family:Myriad Pro;font-variant:normal;font-weight:normal;font-stretch:normal;font-size:6;writing-mode:lr;-inkscape-font-specification:MyriadPro-Regular"
     x="-8.904"
     y="36"
     id="tspan274"> </tspan><tspan
     style="fill:#24221d;fill-opacity:1;fill-rule:nonzero;stroke:none;font-family:Myriad Pro;font-variant:normal;font-weight:normal;font-stretch:normal;font-size:6;writing-mode:lr;-inkscape-font-specification:MyriadPro-Regular"
     x="-8.904 -6.846 -4.356 -3.084 -0.336 2.958 6.2754 7.6794 11.0094 12.2814 14.232 17.526 18.798 21.624 24.918 27.606 30.498 31.914 35.208 36.612 39.996 41.268 44.652 47.52 49.506 52.398 55.812 58.704 61.08 64.086 66.576"
     y="43.2"
     sodipodi:role="line"
     id="tspan276">/* Login to vocaloid database*/</tspan><tspan
     style="fill:#231f20;fill-opacity:1;fill-rule:nonzero;stroke:none;font-family:Myriad Pro;font-variant:normal;font-weight:normal;font-stretch:normal;font-size:6;writing-mode:lr;-inkscape-font-specification:MyriadPro-Regular"
     x="-8.904 -7.5 -5.748 -4.476 -2.772 -1.5 -0.12 4.8054 7.596 9.972 13.35 14.766 17.766 20.418 23.712 27.042 30.372 33.378 36.144 38.13 39.834 42.912 46.242 49.536 51.912 53.88 55.122 56.394 59.472 62.778 65.154 68.16 69.804 71.046 72.318 75.396 78.81 81.702 84.078 86.454 88.158 89.43 91.134 92.406"
     y="50.4"
     sodipodi:role="line"
     id="tspan278">if ( !mysql_connect($host, $user, $pass) ) {</tspan><tspan
     style="fill:#231f20;fill-opacity:1;fill-rule:nonzero;stroke:none;font-family:Myriad Pro;font-variant:normal;font-weight:normal;font-stretch:normal;font-size:6;writing-mode:lr;-inkscape-font-specification:MyriadPro-Regular"
     x="-8.904 -6.36 -3.282 -1.38 1.626 3.576 6.87 10.176 12.138 15.714 18.1686 21.8406 24.6726 27.6306 30.5826"
     y="57.6"
     sodipodi:role="line"
     id="tspan280"> $retour=FALSE;</tspan><tspan
     style="fill:#231f20;fill-opacity:1;fill-rule:nonzero;stroke:none;font-family:Myriad Pro;font-variant:normal;font-weight:normal;font-stretch:normal;font-size:6;writing-mode:lr;-inkscape-font-specification:MyriadPro-Regular"
     x="-8.904 -7.2 -5.928 -2.922 -1.506 0.87 3.876 5.148"
     y="64.8"
     sodipodi:role="line"
     id="tspan282">} else {</tspan><tspan
     style="fill:#231f20;fill-opacity:1;fill-rule:nonzero;stroke:none;font-family:Myriad Pro;font-variant:normal;font-weight:normal;font-stretch:normal;font-size:6;writing-mode:lr;-inkscape-font-specification:MyriadPro-Regular"
     x="-8.904 -6.36 -3.282 -1.38 1.626 3.576 6.87 10.176 12.138 13.41 16.986 18.012 20.994 24.222 28.104 31.056"
     y="72"
     sodipodi:role="line"
     id="tspan284"> $retour = TRUE;</tspan></text>

</g></g></g><g
           id="g286"><g
             id="g288" /><g
             id="g294"><g
               clip-path="url(#clipPath290)"
               opacity="0.300003"
               id="g296"><text
   transform="matrix(1,0,0,-1,297.2282,293.2227)"
   id="text298"><tspan
     style="fill:#9f251f;fill-opacity:1;fill-rule:nonzero;stroke:none;font-family:Myriad Pro;font-variant:normal;font-weight:normal;font-stretch:normal;font-size:6;writing-mode:lr;-inkscape-font-specification:MyriadPro-Regular"
     x="0 3.576 6.012 9.426 12.756"
     y="0"
     sodipodi:role="line"
     id="tspan300">&lt;?php</tspan><tspan
     style="fill:#231f20;fill-opacity:1;fill-rule:nonzero;stroke:none;font-family:Myriad Pro;font-variant:normal;font-weight:normal;font-stretch:normal;font-size:6;writing-mode:lr;-inkscape-font-specification:MyriadPro-Regular"
     x="-8.904 -5.826 -2.496 0.798 3.174 5.16 8.736"
     y="7.2"
     sodipodi:role="line"
     id="tspan302">$host='</tspan><tspan
     style="fill:#3ebb6c;fill-opacity:1;fill-rule:nonzero;stroke:none;font-family:Myriad Pro;font-variant:normal;font-weight:normal;font-stretch:normal;font-size:6;writing-mode:lr;-inkscape-font-specification:MyriadPro-Regular"
     x="9.834 14.6946 17.7006 18.9726 22.3026 25.5966 30.6006"
     y="7.2"
     sodipodi:role="line"
     id="tspan304">Me home</tspan><tspan
     style="fill:#231f20;fill-opacity:1;fill-rule:nonzero;stroke:none;font-family:Myriad Pro;font-variant:normal;font-weight:normal;font-stretch:normal;font-size:6;writing-mode:lr;-inkscape-font-specification:MyriadPro-Regular"
     x="33.6066 34.7346"
     y="7.2"
     sodipodi:role="line"
     id="tspan306">';</tspan><tspan
     style="fill:#231f20;fill-opacity:1;fill-rule:nonzero;stroke:none;font-family:Myriad Pro;font-variant:normal;font-weight:normal;font-stretch:normal;font-size:6;writing-mode:lr;-inkscape-font-specification:MyriadPro-Regular"
     x="-8.904 -5.826 -2.52 -0.144 2.862 4.824 8.4"
     y="14.4"
     sodipodi:role="line"
     id="tspan308">$user='</tspan><tspan
     style="fill:#3ebb6c;fill-opacity:1;fill-rule:nonzero;stroke:none;font-family:Myriad Pro;font-variant:normal;font-weight:normal;font-stretch:normal;font-size:6;writing-mode:lr;-inkscape-font-specification:MyriadPro-Regular"
     x="9.528 13.476 16.482 19.296"
     y="14.4"
     sodipodi:role="line"
     id="tspan310">Neko</tspan><tspan
     style="fill:#231f20;fill-opacity:1;fill-rule:nonzero;stroke:none;font-family:Myriad Pro;font-variant:normal;font-weight:normal;font-stretch:normal;font-size:6;writing-mode:lr;-inkscape-font-specification:MyriadPro-Regular"
     x="22.524 23.652"
     y="14.4"
     sodipodi:role="line"
     id="tspan312">';</tspan><tspan
     style="fill:#231f20;fill-opacity:1;fill-rule:nonzero;stroke:none;font-family:Myriad Pro;font-variant:normal;font-weight:normal;font-stretch:normal;font-size:6;writing-mode:lr;-inkscape-font-specification:MyriadPro-Regular"
     x="-8.904 -5.826 -2.412 0.48 2.856 5.232 8.808 9.936"
     y="21.6"
     sodipodi:role="line"
     id="tspan314">$pass=''</tspan><tspan
     style="fill:#3ebb6c;fill-opacity:1;fill-rule:nonzero;stroke:none;font-family:Myriad Pro;font-variant:normal;font-weight:normal;font-stretch:normal;font-size:6;writing-mode:lr;-inkscape-font-specification:MyriadPro-Regular"
     x="11.082 13.872 17.166 20.472 21.744 24.12 27.45 30.342 31.758 33.174 34.446 37.776 41.07 43.056 44.328 47.742 50.634 53.01"
     y="21.6"
     sodipodi:role="line"
     id="tspan316">You shall not pass</tspan><tspan
     style="fill:#231f20;fill-opacity:1;fill-rule:nonzero;stroke:none;font-family:Myriad Pro;font-variant:normal;font-weight:normal;font-stretch:normal;font-size:6;writing-mode:lr;-inkscape-font-specification:MyriadPro-Regular"
     x="55.386"
     y="21.6"
     id="tspan318">;</tspan><tspan
     style="fill:#231f20;fill-opacity:1;fill-rule:nonzero;stroke:none;font-family:Myriad Pro;font-variant:normal;font-weight:normal;font-stretch:normal;font-size:6;writing-mode:lr;-inkscape-font-specification:MyriadPro-Regular"
     x="-8.904 -5.826 -2.442 0.972 4.548"
     y="28.8"
     sodipodi:role="line"
     id="tspan320">$db='</tspan><tspan
     style="fill:#3ebb6c;fill-opacity:1;fill-rule:nonzero;stroke:none;font-family:Myriad Pro;font-variant:normal;font-weight:normal;font-stretch:normal;font-size:6;writing-mode:lr;-inkscape-font-specification:MyriadPro-Regular"
     x="5.676 8.928 10.8306 14.1246 17.3766 20.2026 21.4746 24.3666 27.0192 29.6706 32.6766 35.0526"
     y="28.8"
     sodipodi:role="line"
     id="tspan322">Brony access</tspan><tspan
     style="fill:#231f20;fill-opacity:1;fill-rule:nonzero;stroke:none;font-family:Myriad Pro;font-variant:normal;font-weight:normal;font-stretch:normal;font-size:6;writing-mode:lr;-inkscape-font-specification:MyriadPro-Regular"
     x="37.4286 38.5566"
     y="28.8"
     sodipodi:role="line"
     id="tspan324">';</tspan><tspan
     style="fill:#231f20;fill-opacity:1;fill-rule:nonzero;stroke:none;font-family:Myriad Pro;font-variant:normal;font-weight:normal;font-stretch:normal;font-size:6;writing-mode:lr;-inkscape-font-specification:MyriadPro-Regular"
     x="-8.904"
     y="36"
     id="tspan326"> </tspan><tspan
     style="fill:#24221d;fill-opacity:1;fill-rule:nonzero;stroke:none;font-family:Myriad Pro;font-variant:normal;font-weight:normal;font-stretch:normal;font-size:6;writing-mode:lr;-inkscape-font-specification:MyriadPro-Regular"
     x="-8.904 -6.846 -4.356 -3.084 -0.336 2.958 6.2754 7.6794 11.0094 12.2814 14.2314 17.5254 18.7974 21.6234 24.9174 27.6054 30.4974 31.9134 35.2074 36.6114 39.9954 41.2674 44.6514 47.5188 49.5048 52.3968 55.8108 58.7028 61.0788 64.0848 66.5748"
     y="43.2"
     sodipodi:role="line"
     id="tspan328">/* Login to vocaloid database*/</tspan><tspan
     style="fill:#231f20;fill-opacity:1;fill-rule:nonzero;stroke:none;font-family:Myriad Pro;font-variant:normal;font-weight:normal;font-stretch:normal;font-size:6;writing-mode:lr;-inkscape-font-specification:MyriadPro-Regular"
     x="-8.904 -7.5 -5.748 -4.476 -2.772 -1.5 -0.12 4.8054 7.5954 9.9714 13.3494 14.7654 17.7654 20.418 23.712 27.042 30.372 33.378 36.1434 38.1294 39.8334 42.9114 46.2414 49.5354 51.9114 53.88 55.122 56.394 59.472 62.778 65.154 68.16 69.8034 71.0454 72.3174 75.3954 78.8094 81.7014 84.0774 86.4534 88.1574 89.4294 91.1334 92.4054"
     y="50.4"
     sodipodi:role="line"
     id="tspan330">if ( !mysql_connect($host, $user, $pass) ) {</tspan><tspan
     style="fill:#231f20;fill-opacity:1;fill-rule:nonzero;stroke:none;font-family:Myriad Pro;font-variant:normal;font-weight:normal;font-stretch:normal;font-size:6;writing-mode:lr;-inkscape-font-specification:MyriadPro-Regular"
     x="-8.904 -6.36 -3.282 -1.3794 1.6266 3.5766 6.8706 10.1766 12.1386 15.7146 18.1686 21.8406 24.6726 27.6306 30.5826"
     y="57.6"
     sodipodi:role="line"
     id="tspan332"> $retour=FALSE;</tspan><tspan
     style="fill:#231f20;fill-opacity:1;fill-rule:nonzero;stroke:none;font-family:Myriad Pro;font-variant:normal;font-weight:normal;font-stretch:normal;font-size:6;writing-mode:lr;-inkscape-font-specification:MyriadPro-Regular"
     x="-8.904 -7.2 -5.928 -2.922 -1.506 0.87 3.876 5.148"
     y="64.8"
     sodipodi:role="line"
     id="tspan334">} else {</tspan><tspan
     style="fill:#231f20;fill-opacity:1;fill-rule:nonzero;stroke:none;font-family:Myriad Pro;font-variant:normal;font-weight:normal;font-stretch:normal;font-size:6;writing-mode:lr;-inkscape-font-specification:MyriadPro-Regular"
     x="-8.904 -6.36 -3.282 -1.3794 1.6266 3.5766 6.8706 10.1766 12.1386 13.4106 16.9866 18.012 20.994 24.222 28.104 31.056"
     y="72"
     sodipodi:role="line"
     id="tspan336"> $retour = TRUE;</tspan></text>

</g></g></g></g></g><g
       id="g338"><g
         id="g340"
         clip-path="url(#clipPath342)"><g
           id="g346"
           transform="translate(294.7627,298.0322)"><path
             d="m 0,0 c -10.614,-4.655 -16.028,-16.185 -16.078,-21.706 -0.111,-12.53 5.417,-36.357 18.489,-48.235 14.983,-13.617 37.784,-14.471 37.784,-14.471 l 11.256,0 c 0,0 7.685,0.832 15.273,4.019 5.877,2.467 11.173,6.413 16.081,12.059 11.508,13.249 14.127,36.432 12.861,47.433 -1.134,9.879 -7.52,19.213 -18.489,23.313 C 61.939,8.106 16.55,7.26 0,0 m -85.217,0 c 10.612,-4.655 16.029,-16.185 16.078,-21.706 0.112,-12.53 -5.418,-36.357 -18.491,-48.235 -14.983,-13.617 -37.784,-14.471 -37.784,-14.471 l -11.254,0 c 0,0 -7.686,0.832 -15.275,4.019 -5.877,2.467 -11.176,6.413 -16.078,12.059 -11.508,13.249 -14.129,36.432 -12.864,47.433 1.135,9.879 7.521,19.213 18.489,23.313 15.238,5.694 60.628,4.848 77.179,-2.412 m -103.709,2.412 c 4.647,0.401 8.443,-0.276 8.846,-1.607 0.383,-1.277 -3.781,-2.814 -8.041,-3.216 -4.641,-0.439 -8.441,0.075 -8.844,1.607 -0.338,1.289 3.379,2.815 8.039,3.216 m 292.224,0.032 c 4.649,-0.355 8.288,-1.638 8.467,-3.016 0.175,-1.322 -4.184,-2.166 -8.452,-1.872 -4.653,0.319 -8.321,1.44 -8.467,3.017 -0.123,1.326 3.788,2.231 8.452,1.871 m -305.889,-12.09 -1.608,18.49 c 0,0 40.515,9.37 88.432,5.628 39.277,-3.07 56.132,-5.117 72.353,-4.752 15.931,0.355 42.345,3.317 72.353,4.752 49.439,2.359 90.041,-5.628 90.041,-5.628 l -2.411,-19.294 c 0,0 -7.025,-0.465 -9.647,-11.256 -1.972,-8.125 -2.769,-19.57 -5.628,-30.549 -1.981,-7.603 -5.104,-14.969 -9.645,-20.903 -9.339,-12.193 -24.392,-16.884 -37.787,-17.687 -12.175,-0.728 -46.054,2.143 -61.098,18.491 -5.845,6.351 -11.183,14.016 -14.47,21.707 -5.015,11.734 -7.399,29.597 -12.864,35.405 -2.253,2.394 -5.295,2.363 -8.844,2.413 -2.584,0.035 -4.834,0.412 -6.43,-0.805 -4.367,-3.325 -7.054,-19.807 -11.256,-30.582 -3.681,-9.445 -8.851,-19.287 -15.274,-26.53 -16.925,-19.082 -47.519,-20.867 -61.099,-20.099 -13.912,0.789 -27.533,4.189 -41.001,20.099 -11.526,13.618 -10.432,36.794 -13.667,49.845 -2.328,9.388 -10.45,11.255 -10.45,11.255"
             style="fill:#9f251f;fill-opacity:1;fill-rule:evenodd;stroke:none"
             id="path348" /></g><g
           id="g350"
           transform="translate(294.7627,298.0322)"><path
             d="m 0,0 c -10.614,-4.655 -16.028,-16.185 -16.078,-21.706 -0.111,-12.53 5.417,-36.357 18.489,-48.235 14.983,-13.617 37.784,-14.471 37.784,-14.471 l 11.256,0 c 0,0 7.685,0.832 15.273,4.019 5.877,2.467 11.173,6.413 16.081,12.059 11.508,13.249 14.127,36.432 12.861,47.433 -1.134,9.879 -7.52,19.213 -18.489,23.313 C 61.939,8.106 16.55,7.26 0,0 z m -85.217,0 c 10.612,-4.655 16.029,-16.185 16.078,-21.706 0.112,-12.53 -5.418,-36.357 -18.491,-48.235 -14.983,-13.617 -37.784,-14.471 -37.784,-14.471 l -11.254,0 c 0,0 -7.686,0.832 -15.275,4.019 -5.877,2.467 -11.176,6.413 -16.078,12.059 -11.508,13.249 -14.129,36.432 -12.864,47.433 1.135,9.879 7.521,19.213 18.489,23.313 15.238,5.694 60.628,4.848 77.179,-2.412 z m -103.709,2.412 c 4.647,0.401 8.443,-0.276 8.846,-1.607 0.383,-1.277 -3.781,-2.814 -8.041,-3.216 -4.641,-0.439 -8.441,0.075 -8.844,1.607 -0.338,1.289 3.379,2.815 8.039,3.216 z m 292.224,0.032 c 4.649,-0.355 8.288,-1.638 8.467,-3.016 0.175,-1.322 -4.184,-2.166 -8.452,-1.872 -4.653,0.319 -8.321,1.44 -8.467,3.017 -0.123,1.326 3.788,2.231 8.452,1.871 z m -305.889,-12.09 -1.608,18.49 c 0,0 40.515,9.37 88.432,5.628 39.277,-3.07 56.132,-5.117 72.353,-4.752 15.931,0.355 42.345,3.317 72.353,4.752 49.439,2.359 90.041,-5.628 90.041,-5.628 l -2.411,-19.294 c 0,0 -7.025,-0.465 -9.647,-11.256 -1.972,-8.125 -2.769,-19.57 -5.628,-30.549 -1.981,-7.603 -5.104,-14.969 -9.645,-20.903 -9.339,-12.193 -24.392,-16.884 -37.787,-17.687 -12.175,-0.728 -46.054,2.143 -61.098,18.491 -5.845,6.351 -11.183,14.016 -14.47,21.707 -5.015,11.734 -7.399,29.597 -12.864,35.405 -2.253,2.394 -5.295,2.363 -8.844,2.413 -2.584,0.035 -4.834,0.412 -6.43,-0.805 -4.367,-3.325 -7.054,-19.807 -11.256,-30.582 -3.681,-9.445 -8.851,-19.287 -15.274,-26.53 -16.925,-19.082 -47.519,-20.867 -61.099,-20.099 -13.912,0.789 -27.533,4.189 -41.001,20.099 -11.526,13.618 -10.432,36.794 -13.667,49.845 -2.328,9.388 -10.45,11.255 -10.45,11.255 z"
             style="fill:none;stroke:#24221d;stroke-opacity:1;stroke-width:1.5;stroke-linecap:butt;stroke-linejoin:miter;stroke-miterlimit:10;stroke-dasharray:none"
             id="path352" /></g></g></g></g></svg>